/* XPM */
static char *_d2486d2b20849f2c8de14a61eaaecf1M5xvoaLGt0iUaxAo[] = {
/* columns rows colors chars-per-pixel */
"64 64 165 2 ",
"   c #212131",
".  c #272837",
"X  c #242639",
"o  c #26293D",
"O  c #2A2C3E",
"+  c #272B40",
"@  c #292E43",
"#  c #2D3144",
"$  c #2D334C",
"%  c #323545",
"&  c #353845",
"*  c #383B47",
"=  c #31364A",
"-  c #34394C",
";  c #393E4C",
":  c #2F3651",
">  c #2F3854",
",  c #303752",
"<  c #333A54",
"1  c #383F52",
"2  c #343D5B",
"3  c #3D414D",
"4  c #3C4254",
"5  c #37405C",
"6  c #3B435C",
"7  c #364161",
"8  c #3A4563",
"9  c #3E4966",
"0  c #3A4669",
"q  c #3D4A6C",
"w  c #3E4C72",
"e  c #41444E",
"r  c #414654",
"t  c #454A54",
"y  c #4B4F56",
"u  c #40475B",
"i  c #444B5C",
"p  c #484F5B",
"a  c #4D545D",
"s  c #444D62",
"d  c #414D6B",
"f  c #475064",
"g  c #4A5365",
"h  c #45516D",
"j  c #4B566A",
"k  c #4E596D",
"l  c #535B65",
"z  c #585F64",
"x  c #525C6C",
"c  c #414F73",
"v  c #445274",
"b  c #495674",
"n  c #4C5A74",
"m  c #425279",
"M  c #485779",
"N  c #4C5B7D",
"B  c #525E73",
"V  c #515F7A",
"C  c #586067",
"Z  c #5C646C",
"A  c #556174",
"S  c #5A6676",
"D  c #5D6976",
"F  c #54627C",
"G  c #59667C",
"H  c #5D6A7C",
"J  c #60686C",
"K  c #616B74",
"L  c #616E7D",
"P  c #677277",
"I  c #65717D",
"U  c #6A757B",
"Y  c #6F797C",
"T  c #707A7B",
"R  c #4F5F80",
"E  c #546482",
"W  c #586781",
"Q  c #5C6B85",
"!  c #5F6F88",
"~  c #616F83",
"^  c #637285",
"/  c #6A7784",
"(  c #6B7986",
")  c #64748A",
"_  c #687789",
"`  c #6B7B8D",
"'  c #727D83",
"]  c #6E7E90",
"[  c #758083",
"{  c #798383",
"}  c #7F8A87",
"|  c #73828D",
" . c #79868A",
".. c #7B888C",
"X. c #758593",
"o. c #748493",
"O. c #768693",
"+. c #778795",
"@. c #738392",
"#. c #788792",
"$. c #798995",
"%. c #798996",
"&. c #7B8B97",
"*. c #7C8C97",
"=. c #7A8A95",
"-. c #7F8F98",
";. c #7E8E98",
":. c #828D8C",
">. c #85918E",
",. c #86928E",
"<. c #818E93",
"1. c #829095",
"2. c #849295",
"3. c #8A9693",
"4. c #8C9996",
"5. c #819199",
"6. c #81919A",
"7. c #83939B",
"8. c #84949B",
"9. c #85959C",
"0. c #87979D",
"q. c #84949B",
"w. c #88979B",
"e. c #88989E",
"r. c #8A9A9F",
"t. c #8D9C9E",
"y. c #8B9A9D",
"u. c #909C94",
"i. c #929F99",
"p. c #94A29C",
"a. c #98A69F",
"s. c #8D9DA0",
"d. c #8E9EA1",
"f. c #8D9DA0",
"g. c #90A0A2",
"h. c #91A1A3",
"j. c #93A3A2",
"k. c #93A3A4",
"l. c #94A4A4",
"z. c #95A5A5",
"x. c #96A6A5",
"c. c #97A7A6",
"v. c #93A3A3",
"b. c #99A7A1",
"n. c #98A8A6",
"m. c #9AAAA7",
"M. c #9AAAA5",
"N. c #9AAAA8",
"B. c #9BABA8",
"V. c #9EAEAA",
"C. c #9FAFAA",
"Z. c #9DACA9",
"A. c #A0AFA7",
"S. c #A0AFA9",
"D. c #A0AFA9",
"F. c #A0B0AA",
"G. c #A0B0AB",
"H. c #A2B2AC",
"J. c #A7B7AE",
"K. c #A7B7AF",
"L. c #A3B3AC",
"P. c #A8B8AF",
"I. c #A8B8AF",
"U. c #A9B9B0",
"Y. c #ACBCB1",
/* pixels */
"v ` E M N Q ) M h = n ^ 3 9 #.| 2   X O   O D V < s ` S   O ( @.` V 6 j _ Q E @.@.@.*.W M 7 s @.6.B.` b M ` X.s.U.I.Z.` R ` _ ^ ",
"m ) N m m E ` G @ X 0 = X x @.! 2 o n >.&   O o   , F A   O ^ | 4 O < c 9 < N ) E ` B.) m w n 6.G.X.N $ 0 Q W N ) ` E ` ` ` ] W ",
"w ) N m w M E ^ 7 o 0 0 o [ X.M 2 @ E S.I @       X @ #   O / n.F @ X < w v ) X.k.%.*.E m m E 6.Z.E Q d w M W E M d $ E x.%.@.j.",
"@ b Q N w m m E Q 7 $ q 0 i ' ] w 2 < ) j.I d k ;   t [ 2 X 4  .j.F @ X < m E @.0.n.%.) N m M Q 0.e.W Q M m N E E w 2 < ^ x.%.-.",
"  $ b W N m m N ) m 2 : q 8 .. .$ : 7 M *.Q W W <   z G.A X o ^ J.%.h $ $ q 2 F ` q.) ) ) N m M _ H.` s.` Q Q &.+.0 : 8 Q 0.x.*.",
"X $ > G E m m M E E c o $ 0 ] K o s ` N ) Q W W d < B q.n o < 1.x.` d , 7 q 6 E E f v %.-.B 7 q s t.x.j.%.e.@.+.e.L X 6 _ X.J.X.",
"o : : b N m m m N ) v o @ 0 W g o k e.W W Q E W W N N E 0 o 6 q.%.R $ @ 8 M E G 5 , ~ s.6.x 2 7 & 7.e.e.X.s.@.) 6.[   O G @.J.@.",
"X @ v M m m m m E Q 8 $ 2 7 F g X < ^ ` ) E Q E W W N N 0 X X F ` W 6 X = E W 5 O G x.6.@.W q 2 i Z.) 0.+.) +.%.%./ @ o v ` x.-.",
"@ v Q N m m m E Q w + 7 @   g k < b d ` n.@.E Q E E ` @.h X X q ) ` n $ 1 Q v @ O } #.%.X.G < , Q J.@.N ) E &.e.t.x.0 o 8 Q ) ` ",
"7 Q E m m m E Q m 7 o q $   g Q N G @ b ` E Q E G B ^ G.L X X q ) E ,   $ N Q v @ O G j.0.j $ v X.J.X.E ) ` Q ) 0.j.n o o q N Q ",
"o 9 Q N m E ) N q o o G v $ j Q E S @ v ` ) M Q s O z J.^ O X q ) E <   $ m E _ v @ q ` +.E 2 , Q G.*.` W ) ` ` @.q.s.b $ q ) E ",
"X o G E m E ` Q q X o G 1 < G ` Q d + M j.Q , 9 m < z J._ 8 o q ) ` n $ $ N @.x.^ d m e.e.W w b ` q.Z.%.x.-.` ` @.X.-.t.~ M ) N ",
"    9 m m M E ) m 7 o d @ X k Q E A @ b @.N G M E V ^ J.^ @ X q ) E 2 X $ N ` G - # G Z.s.j < N %.Z.-.E X.X.W Q 0.s.b r - w N Q ",
"    o 7 m N ) ) q @ o B = : F ` W d + M s.E 4 q M 9 Z J.I . X q ) ) b $ $ N X.e.H 9 M x.s.F 0 N @.e.n.@.x.6.) ` %.%._ :.S M W E ",
"      + 7 N Q ) q X . H d : d ^ Q 8 + m _ Q 9 : h b L J.I o X q ) s.S : d ) X.0.@.) Q *.` M m N %.x.e.X.0.%.@.@.6.s.-.I.X.) ` N ",
"        < m M n $     4 < o < N N q 2 w m s < o 6 N E ( r     $ n ] i + 4 j E E E E E j 6 : 7 M Q @.W E E E E E H K Q @.W E E M ",
"        @ 2 2 :             @ 2 2 2 2 2 < X     @ 2 2 $         : 2 @     X < 2 2 2 2 o     + 2 2 2 2 2 2 2 2 2 $ o < 2 2 2 2 2 ",
"                                                                                                                                ",
"  o   X X X + @ # + + + +               o + +           o     o # = @ X     o @ # @ + + # = = = # + o     X # .                 ",
"# b = 8 2 < m F ` M b c v < O X     o @ c M M , o o o $ q o X 5 G ^ n $   $ b N ^ n M m W ) ^ ^ Q M v # @ 9 Q i                 ",
"v v.Q W N w M X.n.` ` E Q ^ n < X = b b ~ ^ ) n v b b M Q d # @ 8 c , X $ b ) ^ _ ` ` W ) ) N N N ) ) M G ) ` i     X     X X X ",
"` G.-.W M 5 , F ` W ` k.) N M w b ( j.` n < h Q ^ *.s.) E ) H h $ @ O : q w d < M ` X.t.Z.e.` Q M M N Q E N M ,   @ 7 X X 2 0 0 ",
"t.` j.-.E w 2 $ E s.W @.` N E E 8 4 ) x.` v Q i = s @.x.) N N Q L H H V 7 o $ q ) n.J.J 3 T j.` ) m m N Q N < X # b Q q 8 $ @ 8 ",
"b.i B e.6.E 7 + M %.) E s.) M 9 o   , Q ` ) E $ $ < 6 ) ) M m N N N N 8 o o q Q N a y 6 7 i g ) x.) M m N < X   a B.s.N ) 2.3.i ",
"| & @ A ] W 7 X u y.@.N +.W 2 o o 2 < < F e.f X s b < f t.! M m m m m b f 7 N ^ , X : V Q b < s t.s.N m c @ 4 P  .] ` ` j.@.Z l ",
"H %   @ B W 7   & <.Q 6 ..! :   $ q $ o b n.t $ A ) s t S.W m m E N N W E E M n < o n ` @.W 2 # ` H.) M E k | 0.H 2 E s.q.6 X ' ",
"B @   @ B W 7   & #.b @  .` 1   $ q $ X 6 <.3 $ A ) f t B.N m E W E W W Q ) M E n # n ` @.) h : h s.0.N E ` *.H $ @ E e.Q < $ ( ",
"w : X $ F W 7   i n.n @ S @.j o $ m 0 X $ L 6 X s n $ e e.N N Q E ) Q ` 0.%.E ) ^ < 2 Q ) ) E 7 # _ H.! M @.F $ % l E Q E E ) N ",
"v 0 o X k W 7 o n n.j o S | Q 6 @ 0 7 $ b Q E $ $ $ X 4 ) N Q E Q ` ` s.Y.s.) E Q b + A E m M d $ b x.6.N k.K + Z x.) d H *.U.H ",
"^ - o 8 W W 8   ; 4.; X S ` ` j X   o v ) N Q ;   X , N Q M N Q E ) ) -.6.c N Q M 0 @ B F M E Q q # ( G.W 0.@.N E ` G = ; M.U.Z ",
"` M 0 G E E x   = ^ v O S E Q G <   o m ) N M $   $ n ) M N Q E ) X.s.e.A @ q M m @ 8 m m E Q n ^ = b Z.! N -.q.W m N ^ n n.-.t.",
"x.E $ B E E A o d ) v @ H E W x X   + m ^ ) N $   : E ) N Q E ` ] j.@.Q k   @ b Q = A N m E x p j.L 4 a.*.N ) ~ 7 , Q s.E @.E R ",
"Z.E 0 v M E A   - ^ m @ >._ W G < o 0 q - v Q ;   : E ` ) E ` n.*.! 6 5 8   # ^ ^ = q Q E E x # ) y.; ' Z.) Q g : G s.! ` n.X.N ",
"n.i @ k E E A o 0 b $ o u.` W x o   = A O @ H 4   : E ) E ` n.0.W M $ : 2   ; p.| d $ S E E x   4 | h N G.*.E 2 a j.X.M E *.Z.Q ",
"%.h 2 4 k W F k w $ X < j.` W F $   # ~ 9 5 ~ 4   : E ) M ! Z.l = $ X 6 f   3 B.Q m 7 4 = 9 V x g 6 w m l 3.%.u 4 %.s.Q N e.+.) ",
") N m 7 B W M E 0 X   q *.Q W W 2 X 5 F W M E =   : E ` E E n.f X     i x   3 n.R m E 9 + 6 @.e.^ 2 < n # D e.' 6 s -.0.E ` N *.",
"*.Q 8 q W W m w :   X q ) E W W 2 @ q 7 G E M $ + : d ) ) E Z.E +     & i @ 3 n.E E W 9 : 6 U x.6.V # n 5 < <.j.A : k Z.Q M E B.",
"y.e.i < n E m q @   X 0 W N E n < , 0 @ n W d + < < + d W Q s.V +       + : 3 B.Q W q o f s & I s.#.< 2 w @ U x.@.h 4 :.6.Q *.n.",
") n.@.i 8 m m m v @ X 2 w m q $ @ 0 0 @ G M @ X 8 8 X @ M ` ) N @           * y.@.N $ + ' Y # , Q j.F $ 2 < K k.j.) v 4 w.%.n.%.",
"N +.B.*.E N E W ) c = ; h E f 3 ; i n - w 0 $ 8 ) ` d $ M ` Q H t % O o X   o d H _ M M _ @.Q Q %.@.` G r I Z.B.-.%.` E Q ` *.W ",
"^ j.-.E E -.n.t.) M ^ 3.| e.n.b.b.b.t.^ q $ 2 G 2.b...w v ` 3.r :...n 8 < o . X # S N W e.%.` G.n.` _ v.J.I.I.I.J.n.6.B.B.X.x.%.",
"= h b c c b h ; v w v ; d M n n n j ; q @ 2 @ 7 6 & 1 7 # q & . K F < X $ d x X   O A n M G Q W _ h = n j.2.Q ~ | 1.t.Q _ N N ^ ",
"  X o o o o X   o o o   X o o o o X   X   X   X X     X   X     O O X     O O       O @ o @ @ O # o   o * = O @ % = * O # o o @ ",
"X                                                                                     < @                     $ :               ",
"9 j x s @                           X 2 2 2 X   $ 2 2 2 2 7 f .     4 s 2 2 2 7 f O i G h 2 2 :   X 2 j 8 2 2 0 q 8 x x k 6 X   ",
"Q E E W B ;     X $             o 5 j Q W Q 8 o < m N E M E F O   $ v ` @.E M ) w.A F ) ) N m q < 8 #.j._ W W W W ) %.x.s.N 2 X ",
"Q M 7 s g f i i u < 4 o       % j E Q ` Q ` W 8 < 8 N W E W V O   7 N ` 0.-.W ) s.s.E j L @.) m M ! y.{ ~ -.*.-.j.q.%.j.7.+.W 6 ",
"d M 2 X   4 Q Q F = H #     # j Q Q E W q G A V 8 : q E Q E ^ #   $ G F ^ J.^ q ) H.W @ s e.j.N N ` Q @ 0 k.s.0.Z.j.` Q d *.e.) ",
"# A v @ X 5 M w 2 # H #     l ) M E Q 7 o 8 @ K Q < < Q E ` Q @     s i z J.L @ b Z.) < < ( n.@.E Q 9 $ V s.0.@.` ) Q v o 8 B.0.",
"o 2 @   6 Q W q ; # x ; X   K -.W Q v # # q 4 ..] 6 : N ) ) M o     2 2 Z J.L @ b Z.+.F 2 i #.x.` 9 $ V s.%.` ) W m N Q = e 4.%.",
"      X U -.m W p.h # A -   2 @.6.N ) M G v 1.@.) E w m M E ^ #     < w ^ J.L @ b Z.! W F 2 , ^ i.= b s.Q M M M m m N Q b 2.) v ",
"  X   < #.6.m W n.b @ q v # : E ) N ` ~ = @ h e.0.Q m m E t.| #     2 2 C G.^ # n Z.W M W f X a p.& ^ @.N m m m m N Q h < n Q < ",
"X x = 2 Q ) m N +.~ # 0 Q 1 X 2 E ) E ^ # 2 # :.&.M m m q a 4.*     f s r e.j.b ` H.W m Q G < y p.e t.W m m w w m M v 4 :.n = X ",
"X H v $ 8 ] -.N +.t.% @ H 4   : ) s.N ) q $   K s.@.m m w q F @     6 5 = ` a.i p.q.N m Q W 2 y p.e b.W m m w m R ) A & ` N 0 + ",
"X H 6 X o P j.M ) Z.h o h q @ X Z B.M E Q A 8 4 I X.E m M Q G @   $ n n < s ..n S.%.N m Q k o & G 3 B.] M m w w M W ^ 9 N Q Q = ",
"< ^ A % @ S X.m N 6.Q @ # b 4   t 6.W M E ` Q 9 6 U 6.W W E F O   h ) W 2 . f ^ 0.@.N E W 6 o < $ = 1.j.E m m m m M E E N 0.) = ",
"< ^ ) - @ k ) m M ` 6.i X 4 6 @ = _ -.N E Q k F 9 g ' ` F 8 n O   A ) W s   % ` 0.) M ) j @ r ~ $ O Q H.` M m m m m N ` Q X.s : ",
"X H N $   i ) m M ) s.Q < X $ < < W s.Q ) 9 X j E 6 - E q < H #   j E E b @ & w.J.E m ) i o K B.b @ b G.-.N N N m m N ` _ 8 X d ",
"- G h $ # f W m m m Q ) E < X @ q E ) ^ S = = h W A s m m N G O   , V E w 2 4 j.B.W m A i f %.j.G $ 9 :.q.Q ) _ W N E ~ A O = H ",
") M $ 7 F Q N N N N N N ) E 6 # i ! N b < v ) ` W @.7.N N Q M o     6 N d < M E ` ) N 4 x q.e.Q m q @ = 2.*.` 6.e.` ) b & = L ` ",
") N b m M E ) ) ` ` ) ` ` ` ~ L Q E X.@.^ ) ` X.@.X.%.` ) E Q @     g _ ) ( @.` @.Q ) _ @.` W E N m N n F ) E E ) @.%.X.| | #.@.",
"b Q ) E E E v E ` ) E ^ ` F 5 2 N @.Z.v.E b ^ t.1.q.j.^ M Q b #     g Q F -.n.! c.Z.%.X.j.H.Z.Z.s.W j.j.| F W *.q.&.H.H.H.H.A.%.",
"o # d Q G 6 $ M ^ N Q 4 d , < < , h ; 3 q $ q u & l ) q @ = q A #   2 5 , ) Z.) Q | ` j.X.) ` E W ~ F r h m m s i M E E E F r d ",
"    o # # X   @ = $ h O o X X X X o     @ 2 $ X   . # o     o = X   X X X # e = @ = = 3 & # # : q = @   o + + X X + + + + +   o "
};
