/* XPM */
static char *_a4432640006403b80016b4ee989f372zo8HPCa7fk60t469[] = {
/* columns rows colors chars-per-pixel */
"64 64 244 2 ",
"   c #0B0D15",
".  c #140E15",
"X  c #141418",
"o  c #0C090A",
"O  c #13152E",
"+  c #171928",
"@  c #141631",
"#  c #161A33",
"$  c #191C34",
"%  c #191E3C",
"&  c #161B3A",
"*  c #0E1129",
"=  c #381E36",
"-  c #281F33",
";  c #1E222B",
":  c #1E233B",
">  c #232629",
",  c #25292A",
"<  c #292B2D",
"1  c #272629",
"2  c #212132",
"3  c #24263A",
"4  c #26293D",
"5  c #2B2C3E",
"6  c #2A2934",
"7  c #382539",
"8  c #383738",
"9  c #303231",
"0  c #2D281B",
"q  c #441F3A",
"w  c #401D36",
"e  c #44223B",
"r  c #4A233E",
"t  c #462A3C",
"y  c #51333C",
"u  c #3F413B",
"i  c #4B4937",
"p  c #555039",
"a  c #635C3C",
"s  c #6C653E",
"d  c #68633C",
"f  c #76673F",
"g  c #191F42",
"h  c #1C2246",
"j  c #262B42",
"k  c #2A2E43",
"l  c #232949",
"z  c #392A45",
"x  c #2D3144",
"c  c #2D334C",
"v  c #323545",
"b  c #31364A",
"n  c #353A4C",
"m  c #3A3D4C",
"M  c #3A3944",
"N  c #2E3552",
"B  c #2D3556",
"V  c #323A54",
"C  c #343D5B",
"Z  c #383B56",
"A  c #242A53",
"S  c #2D3566",
"D  c #323B77",
"F  c #303871",
"G  c #482A45",
"H  c #572848",
"J  c #46354B",
"K  c #56354A",
"L  c #483854",
"P  c #563A54",
"I  c #4E2D5D",
"U  c #642A4C",
"Y  c #752E56",
"T  c #693859",
"R  c #77375C",
"E  c #683250",
"W  c #513460",
"Q  c #3D414B",
"!  c #3C4254",
"~  c #3C435C",
"^  c #37405C",
"/  c #364161",
"(  c #3A4563",
")  c #3E4966",
"_  c #3A466A",
"`  c #3C4A6C",
"'  c #3E4C71",
"]  c #3F4673",
"[  c #43464E",
"{  c #46484E",
"}  c #444B5C",
"|  c #464854",
" . c #564759",
".. c #4D5358",
"X. c #55585C",
"o. c #574D46",
"O. c #665547",
"+. c #6C4954",
"@. c #6D6742",
"#. c #746C43",
"$. c #766C48",
"%. c #797347",
"&. c #716755",
"*. c #434C63",
"=. c #424D6B",
"-. c #484865",
";. c #4B5465",
":. c #45516D",
">. c #4E596D",
",. c #4C566B",
"<. c #535C6D",
"1. c #575867",
"2. c #424D76",
"3. c #445274",
"4. c #495674",
"5. c #425279",
"6. c #4C5B7D",
"7. c #4C5976",
"8. c #525D74",
"9. c #525E7A",
"0. c #585C76",
"q. c #544B65",
"w. c #774666",
"e. c #665965",
"r. c #755367",
"t. c #556174",
"y. c #53627D",
"u. c #59667B",
"i. c #5D6A7C",
"p. c #5C6575",
"a. c #5C646C",
"s. c #646977",
"d. c #69727B",
"f. c #747277",
"g. c #716C6C",
"h. c #5F6153",
"j. c #83325D",
"k. c #873863",
"l. c #963869",
"z. c #A03D70",
"x. c #85794B",
"c. c #856D58",
"v. c #8F7656",
"b. c #98577D",
"n. c #8F4C6E",
"m. c #A34B7B",
"M. c #8F756D",
"N. c #A17E64",
"B. c #8E475E",
"V. c #8C834D",
"C. c #92864E",
"Z. c #978D53",
"A. c #9C9254",
"S. c #8B8553",
"D. c #A19656",
"F. c #A79B59",
"G. c #B49A52",
"H. c #ADA35C",
"J. c #B1A75E",
"K. c #8F876A",
"L. c #A68467",
"P. c #AD916F",
"I. c #B9AE62",
"U. c #B6AC62",
"Y. c #B9B16F",
"T. c #C89878",
"R. c #D29E7C",
"E. c #C4BA69",
"W. c #CCAF76",
"Q. c #CAAB58",
"!. c #CEC46B",
"~. c #D1C76E",
"^. c #D3CA76",
"/. c #CCC47A",
"(. c #3A4383",
"). c #4E5B86",
"_. c #546482",
"`. c #5C6B85",
"'. c #5A6983",
"]. c #5A659A",
"[. c #616E83",
"{. c #647285",
"}. c #64748A",
"|. c #6C7B8D",
" X c #6B7685",
".X c #747D86",
"XX c #6E7E90",
"oX c #777E96",
"OX c #626DA7",
"+X c #6673A8",
"@X c #5F6BA0",
"#X c #9C5981",
"$X c #9B5780",
"%X c #875B8C",
"&X c #A75B86",
"*X c #B15C8B",
"=X c #AB648D",
"-X c #B46A95",
";X c #A76F97",
":X c #97739A",
">X c #73828D",
",X c #7A8588",
"<X c #748492",
"1X c #7B8A96",
"2X c #7E8E98",
"3X c #7B8598",
"4X c #7B83AC",
"5X c #848989",
"6X c #84949B",
"7X c #8B9A9D",
"8X c #879494",
"9X c #8C9392",
"0X c #AD9890",
"qX c #94A29C",
"wX c #B6AA95",
"eX c #8D9DA1",
"rX c #8992A9",
"tX c #93A3A3",
"yX c #9AAAA6",
"uX c #9CACA9",
"iX c #99A7A2",
"pX c #A5AAAB",
"aX c #A3B3AC",
"sX c #A8B8AF",
"dX c #B0B3B2",
"fX c #A99BA1",
"gX c #D5A789",
"hX c #DDB497",
"jX c #D1AC96",
"kX c #E1B79A",
"lX c #DCB9A4",
"zX c #E4BDA3",
"xX c #D9D28D",
"cX c #EAC5A9",
"vX c #E7C2A7",
"bX c #E3DEA1",
"nX c #EDEAAD",
"mX c #E0DC9F",
"MX c #889BC2",
"NX c #C2BEC7",
"BX c #C9C7C9",
"VX c #E2D3D1",
"CX c #E8E8EB",
"ZX c #DAD5E1",
/* pixels */
"3.|._.5.6.`.}.5.:.b 7.{.Q ) 1X>XC 2 3 5 2 5 p.9.V *.|.p.6 7  .q.s.9.~ ,.|.'.y.<X<X<X2X'.5./ *.<X6XuX|.4.5.|.<XeXsXsXuX|.).|.|.{.",
"5.}.6.5.5._.|.u.k 3 _ b 3 <.<X`.C 4 7.8Xv 2 5 4 2 V y.t.6 e e r z 4 N 2.` V 6.}._.|.uX}.5.' 7.6XaX<X6.c _ `.'.6.}.|._.|.|.|.>X'.",
"' }.6.5.5.5._.{./ 4 _ _ 4 ,X<X5.C k _.aXd.5 2 2 2 3 x t K b.T r } k 3 C ' 3.}.<XtX1X2X_.5.5._.6XuX_.`.=.' 5.'._.5.=.c _.tX1X<XtX",
"k 4.`.6.5.5.5._.'./ c ` _ } .XXX' C V }.tXd.) >.m 2 J K T -Xn.G g.>.k 3 C 5._.<X6XyX1X}.6.' 5.`.6X7X'.`.6.5.6._._.' C V {.tX1X2X",
"2 x 4.'.6.5.5.6.}.5.C N ` ( ,X,Xc N / 6.2X`.'._.Z = P &X&Xm.m.&Xw.P -.k c ` C y.|.6X}.}.}.6.5.5.}.aX|.eX|.`.`.1X<X_ N ( `.6XyX2X",
"3 c N u._.5.5.5._._.2.4 x _ XXs.4 *.|.6.}.`.'.'.*.e K =X&Xk.m.-XT r } V / ` ~ _._.;.3.1X2X8./ ` *.7XtXtX1X7X<X<X7Xs.3 ~ |.<XsX<X",
"4 N N 4.6.5.5.5.6.}.3.4 k _ '.;.4 >.7X'.'.`._.'.9.G H l.k.{ w.l.U r c k ( 5._.y.^ V [.eX6X<.C / n 6X7X7X<XeX<X}.6X,X2 5 u.<XsX<X",
"3 k 3.5.5.5.5.5._.'.( c C / y.;.3 Z {.|.}._.`.>.q.T T B.w.[ R l.U r Z 3 b _.'.^ 5 i.tX6X<X'.` C } uX}.6X<X}.<X1X1X Xk 4 3.|.tX2X",
"k 3.`.6.5.5.5._.`.' j ( k 2 ;.>.V 4.=.|.yXXX9.L H =X=X1.X.[ R l.U e -.c Z `.3.k 5 5X1X1X<Xy.C V `.sX<X6.}._.1X6X7XtX_ 4 ( `.}.|.",
"/ '._.5.5.5._.`.5.( 5 L z 6 ;.'.6.u.k 4.|._.'.J G m.b.X.X.[ R l.k.w.J - c 6.`.3.k 5 u.tX6X,.c 3.<XsX<X_.}.|.'.`.6XtX7.4 4 ` 6.`.",
"4 ) `.6.5._.}.6.` 4 7 q q e ;.`._.p.k 3.|.}.4.J r l.B.X.X.Q R l.*X-XK = b 5._.|.3.k ` |.<X_.C V `.aX2X|.'.}.|.|.<X6XeX4.c ` }._.",
"3 4 u._.5._.|.`.` 3 7 q w.n.P  .L J 7 -.eXq.G Y Y T  ...| [  .+.e.r.R Y G L >X.XP J J  . .L J J P  .e. .5X2X|.|.<X<X6X7Xs.5.}.6.",
"2 2 ) 5.5.5._.}.5.C 7 q b.-XH r r r r L  XL r k.l.| [ { [ [ [ [ [ { k.k.G J {.q.r r r r r r r r r r r q s.<X'.`.6XeX4.[ n ' 6.`.",
"2 2 4 ( 5.6.}.}.` k 7 q k.m.b.#X#X#X$Xw. .T j.l.l.| | X...[ [ { { { k.l.k.R P w.$X$X#X#X#X#X#X#Xn.k.U q f.2X}.|.1X1X|.5Xp.5.'._.",
"2 2 2 j / 6.`.}.` 3 = q j.z.=X-X-X-X-Xn.r R l.l.k.| | X...[ [ { { { k.l.l.k.G w.-X-X-X-X-X-X-X-X*Xl.R G f.1XXX<X6XeX2XsX<X}.|.6.",
"2 2 2 2 V 5.6.7.c 2 = q j.l.e.e. . . .+.l.l.l.G 9 [ { { { [ [ [ [ [ 8 t l.m.=Xn. .X.e.e.1.8 J -Xb.H P 9.y._._._.i.s.`.<X`.'._.5.",
"2 2 2 2 k C C N 2 2 = q j.l.X.X.| | { P j.j.R 7 < Q Q [ [ [ [ [ Q Q < 9 R k.#Xr.{ | ......9 8 *Xn.r z C C C C C x 4 C C C C C C ",
"> 2 2 2 2 2 2 2 2 2 = q j.l. .| X.X.| 8 > 1 < , , ; < [ { | { [ 8 , > > < < < 5 Q 8 < < < , 9 l.j.q = 2 2 ; 2 2 $ $ $ 2 > 2 2 2 ",
"2 4 2 3 3 3 j k x k 7 q j.l. .| X...M o.&.o.8 < < h.h.Q M M Q [ 9 , i i < 9 i h.f.o., , < t H Y E 7 7 2 2 3 x 4 $ 2 2 2 > 2 2 2 ",
"x 4.b ( C V 5.y.|.6.L q j.l. .| X.{ , g.nXP.d 8 8 mXwX9 , > 8 [ 9 < V.Z.9 i D.W.nXK., , < k.l.r L 4.3.x k ) '.} 2 2 2 2 > 2 2 2 ",
"3.tX`.'.6.' 6.<XyX|.s.q.E U 8 8 ..{ 8 K.nXY.A.%.%.mXxXS.%.@.i 8 o.@.Y.Y.$.%.I.xXnXK.>  .w.R Y r L [.[.6.i.}.|.} > 2 3 > 2 3 3 3 ",
"|.aX2X'.5.^ V y.|.'.|.7XL e < < [ { { K.nXxX!.H.F.bXbX~.E.F.@., %.F.mXmXF.H.~.xXnXK.> b.-XT H r J 3.6.`._.6.5.V 2 k / 3 3 C _ _ ",
"7X|.tX2X_.' C c _.eX'.|.P e < , 9 u O.Z.xXE.H.V.V././.Z.F.xXK.p A.E.^./.x.V.J.E.xXH.#.n.m.H K 1.0.5.5.6.`.6.V 3 k 4.`.` ( c k ( ",
"iX} 9.7X6X_.C j 6.1X}.9. .q < , , 8 s Z.~.J.A.%.%.E.I.#.A.nXY.s H.~.!.E.%.%.A.J.!.I.F.n.l.H G [.eX{.5.5.6.Z 3 2 ..uXeX6.}.8X9X} ",
">Xv k t.|.'.^ 3 } 7XXX7.P q G G , 8 s x.H.V.%.H.I.x.V.I.I.U.S.s Z.F.F.H.I.H.#.V.F.I.E.F.v.y q G e.6X6.2.2.k ! d.,XXX|.|.tX<Xa.<.",
"i.v 2 k 8.'./ 2 v .X0.Z P t T T 8 i #.x.A.x.#.I.E.%.x.E.I.A.x.$.C.A.Z.D.E.I.%.V.A.J.E.J.D.o.y y  .9X0.=.9.>.>X6Xi.C _.eX6X~ 3 .X",
"9.k 2 k 8.'./ 2 7 G G 7 O.$.I.E.E.I.A.V.#.V.A.F.D.#.%.F.Z.s N.T.v.#.#.%.D.H.E.F.#.#.$.I.!.D.Z.A.$.K G G ,.|.2Xi.x k _.7X`.Z c  X",
"' N 3 c y.'./ 2 M r H H p d H.I.I.H.D.V.d Z.J.Z.C.x.x.C.V.x.P.gXL.x.x.x.C.D.~.J.V.#.p A.U.Z.V.x.@.H H q -.XXy.x v 1._.`._._.}.6.",
"3._ 4 3 ,.'./ 4 L r Y l.t < a s s %.D.V.d H.~.x.$.T.P.#.v.T.hXcXgXT.T.P.$.x.~.~.~.%.> p #.s a < t l.Y q -.tXs.j a.tX}.=.i.2XsXi.",
"{.n 4 ( '.'.( 2 M e.K Y t 7 i i i p @.@.d A.I.%.$.P.T.P.P.gXkXcXhXgXR.P.O.O.F.H.I.Z.$.p i i i K U Y T g.8.6X<X6._.|.i.b m yXsXa.",
"|.7._ u._._.<.2 b {.L q e e < , , , , i d V.D.%.$.T.gXvXcXcXcXcXcXvXgXP.y y @.x.D.I.~.p > , 7 l.R r L iX`.6.2X6X_.5.6.{.7.yX2X7X",
"tX_.c 8._._.t.4 =.}.-.7 G q 7 e E K i $.F.C.x.P.0Xn.M.gXhXcXcXcXhXgXM.r.:Xf.i i a %.A.i 1 7 G U +. .m qX1X6.}.[.( V `.eX_.<X_.).",
"uX_._ 3.5._.t.2 n {.3.k P q r H l.B.@.A.^.Z.@.dXNXI P T.gXcXcXcXgXT.P W BXpX, > > i d 8 > H H q  .8Xm .XuX}.`.;.N u.eX`.|.yX<X6.",
"yX} k >._._.t.4 ( 4.c 3 5Xs.8. .H H K O.V.i 1 dXZX%X%XhXzXcXcXcXzXhX%X%XZXdXo X , 9 8 7 7 r G 6 m .X=.6.aX2X_.C ..tX<X5._.1XuX`.",
"1X:.C ! >.'.y.>.` c 3 Z qX|.'.8.7 G H o.#.0 . dXZX:X;XzXcXcXcXcXcXvX;X:XZXdXo . , 1 1 7 q e J 1.;.~ ' 5.1.8X1X} ! 1XeX`.6.7X<X}.",
"}.6.5./ 9.'.5._._ 3 3 ` 1X`.'.'.Z 7 r y #.0 o L.jXlXzXcXcXcXcXcXcXcXzXlXjXL.o . , 7 e Z 5 m  X7X{.C V 9.x p.7X.X~ *.2X6X_.|.6.2X",
"1X`.( ` '.'.5.' N 2 2 _ }._.'.'.Z 7 r y O.0 . c.N.wXjXvXvXzXzXzXvXvXjXwXL.$.o X < 7 q L b ~ d.tX6X9.x 7.^ V 8XtXt.N >.uX`.5._.uX",
"7X7X} V 7._.5.` k 2 3 _ _.6._.,.e q q e e e = . . :  .lXkXR.T.R.kXvX| % . . w q e q q q G L b d.eX1XZ C ' k d.tX<X:.! 5X6X`.2XyX",
"}.yX<X} ( 5.5.5.3.k 2 C ' 5.` b 7 G G 7 L J 7 .   % n M.P.0X0X0XP.M.n &   . 7  . .L z z  .s.x V `.tXy.c C V s.tXtX}.3.! 7X1XyX1X",
"6.<XuX1X_.6._.'.}.2.b m :._.;.m m | 7.n ` ( k % O & @ . 5 3XrXMX! . @ & O O 3 *.u.{.4.3.{.<X`.`.1X<X|.y.| d.uXuX2X1X|._.`.|.2X'.",
"{.tX2X_._.2XyX7X}.6.{.8X>X7XyXiXiXiX7X[.` j l : : p.d.f.M.0X0XfX5Xf.d.p.: # $ 2 k p.6.'.6X1X|.aXyX|.|.tXaXsXsXsXsXyX6XuXuX<XtX1X",
"b :.4.2.2.5.:.m 3.' 3.m =.6.7.7.7.:.m ) k : O % c dXBXCXVXT.T.T.VXCXBXpXc % O $ 2 5 t.7.6.u.'.u.|.:.b 7.iX8X`.[.>X8X7X'.|.6.6.{.",
"2 3 4 4 4 4 3 2 4 4 4 2 3 4 4 4 4 3 2 3 # % % S F -.d.BXfXO.O.O.fXBXs.-.F S % $ @ $ 5 k 4 k k 5 x 4 2 4 M b 5 k v b M 5 x 4 4 k ",
"3 2 2 2 2 2 2 2 2 2 2 2 2 2 2 2 2 2 2 $ O % l D D h ~ dX5X9 9 9 5XdXC h D D h % O $ 2 V k 2 2 2 2 2 2 2 > 2 > x N 2 2 2 2 2 2 2 ",
") ,.<.*.k > > 2 2 2 2 2 2 2 2 2 2 2 3 l * 2.].S A F D ~ n 1 1 1 n ~ D F A S @X` @ : } i.:.C C N 2 3 C ,.( C C _ ` ( <.<.>.~ 3 2 ",
"`._._.'.8.m > > 3 c 2 2 2 2 2 2 4 Z *.C O 5.+XB h D F k 5 9 8 8 5 k F D g B +X2.$ b 4.}.}.6.5.` V ( 1XtX}.'.'.'.'.}.1XtXeX6.C 3 ",
"`.5./ *.;.;.} } } C ! 4 2 2 2 v ;.=.3 3 9 j l # # h J G.G.G.W.xXF.x.v g # $ l j 9 3 $ ~ s.<X}.5.5.`.7X,X[.2X2X2XtX6X1XtX6X<X'.~ ",
"=.6.C 3 2 ! `.`.y.b i.x > 2 x ;.d.1.{ M 6 3 : j 3 & v v.D.Q.W.xXZ.@.4 % k n : 3 6 M [ [ 1.7XtX6.6.|.i.k _ tXeX6XuXtX|.'.=.2X7X}.",
"x t.3.k 3 ^ 5.' C x i.x 2 2 <. X&.L.lXM.* + > ;.9.@ O + i Q.G.C.y O O $ ..5X> + O g.vXL.&..XiX<X_.'.) c 9.eX6X>X|.}.`.3.4 ( yX6X",
"4 C k 2 ~ `.'.` m b <.m 3 2 s.5Xc.L.hXL.o.o.i X.=.A B s.g.x.f a e.s.B l ! g.i o.o.L.hXL.&.X.,XtXXX) c 9.eX1X|.}.'.5.6.`.b [ 7X1X",
"2 2 2 3 d.2X5.'.qX:.x t.n 2 C .Xc.N.T.T.R.L.c.6 & D OXCXpX+ > > pXCX].D & 5 c.L.R.T.W.N.c.| V {.qXb 4.eX`.5.5.5.5.5.6.`.4.8X}.3.",
"2 3 2 V 1X6X5.'.yX4.k ` 3.x N u.f.g.N.N.L.O.8 3 l oXrX9X.X0.s.[.,X9XrXoXl 3 8 O.N.L.L.g.s.;.3 ..qXn {.<X6.5.5.5.5.6.`.:.V 7.`.V ",
"3 <.b C `.}.5.6.<X[.x _ `.Z 3 C _.f.c.c.c.8 * % c dXpX1.p.3XrXMX[.1.pXpXc % O J c.v.c.<.`.y.V ..qXQ 7X'.5.5.5.5.5.5.3.! 5X7.b 3 ",
"3 i.3.c ( XX2X6.<X7Xv k i.! ; N }.7Xs.f.1.3 O # j 4X4X5.] C / _ ] 2.4X4Xj @ O v 5X5Xs.3.`.'.C ..qX[ iX_.5.5.5.5.).}.t.v |.6._ 4 ",
"3 i.~ 3 4 d.tX5.}.uX:.4 :.` k 3 a.uX6._.'.c @ @ % OXOX(.F & & % S (.OXOX% O $ V iX1X6.5.`.>.4 n u.Q iX|.5.5.5.5.6.'.{.) 6.`.`.b ",
"V {.t.v k p.<X5.6.6X`.k x 4.! 2 | 6X'.5._.[.8.: & (.(.l h @ # @ h h (.(.# # ! u.6X<X6._.'.~ 4 V x b 8XtX_.5.5.5.5.5._._.6.6X}.b ",
"V {.}.n k >.}.5.6.|.6X} 3 ! ~ k n }.2X6._.9.*.N l D F h % $ 3 $ # % F D l : 5 {.6X}.5.}.:.k | [.c 5 '.aX|.5.5.' 5.5.6.|.`.<X*.N ",
"3 i.6.c 2 } }.5.5.}.eX`.Z 3 x V C '.eX'.}.l $ ].OXA % @ h V t.5 @ @ g A +X].# ;.uX_.5.}.} 4 s.uX4.k 4.aX2X6.6.6.5.5.6.|.|.( 3 =.",
"n u.:.c x ;.'.5.5.5.`.}._.Z 3 k ` _.}.{.t.: # ).].l & @ l 6.u.k @ O & A ].).@ ;.tX'.5.t.} ;.1XtXu.c ) 5X6X`.}.}.'.6._.{.t.5 b i.",
"}.6.c / y.'.6.6.6.6.6.6.}._.~ x } `.6.4.V l @ F D h % @ l `.7.4 $ @ % h D F @ V }.}.y.! <.6X7X`.5.` k b 8X2X|.6X7X|.}.4.n b s.|.",
"}.6.4.5.5._.}.}.|.|.}.|.|.|.[.s.'._.<X<X{.b * B S : $ * k _.i.5 + * $ : S B * ! |.'.}.|.<X|.'._.6.5.6.7.y.}._._.}.<X1X<X>X>X1X<X",
"4.'.}._._._.3._.|.}._.{.|.y.^ C 6.<XuXqXy.3 X 4 x ; + X 3 '.4.k +   + ; x 4 X n qXuX1X<XtXaXuXuXeX'.tXiX>Xy.'.2X6X1XaXaXaXaXaX1X",
"4 x =.'.y.~ c 6.{.6.'.! =.V V V V :.m Q ` 4 j ; + X ; j ; b ` 8.6 + + X + 6 a.<.'.>X|.tX<X}.|._.'.[.y.| :.5.5.*.} 6._._._.y.| =.",
"2 2 4 x x 3 2 k b c :.4 4 3 3 3 3 4 2 2 k C k X     + 3 2 2 4 b 3 $ X     X Q b k b b Q v x x N ` b k 2 4 j j 3 3 j j j j j 2 4 "
};
