/* XPM */
static char *_13d6a5072064894a4d06d5a1d2bb859roWOKVTqV9f2sLXM[] = {
/* columns rows colors chars-per-pixel */
"64 64 236 2 ",
"   c #040404",
".  c #161517",
"X  c #110D14",
"o  c #2B2819",
"O  c #12152E",
"+  c #1B1D28",
"@  c #161934",
"#  c #151C3C",
"$  c #191E3D",
"%  c #161833",
"&  c #0D1029",
"*  c #1C232F",
"=  c #222529",
"-  c #25292A",
";  c #2A2C2D",
":  c #232327",
">  c #34352F",
",  c #2C2C32",
"<  c #232437",
"1  c #382734",
"2  c #2D3234",
"3  c #33353B",
"4  c #393938",
"5  c #2F2E2B",
"6  c #26121F",
"7  c #441F39",
"8  c #441E39",
"9  c #46213B",
"0  c #49233D",
"q  c #4B2E3F",
"w  c #463939",
"e  c #52343A",
"r  c #484637",
"t  c #59463A",
"y  c #58553B",
"u  c #635B3C",
"i  c #6B643E",
"p  c #66603D",
"a  c #191F41",
"s  c #1B2142",
"d  c #1F254A",
"f  c #1F2650",
"g  c #252A47",
"h  c #373945",
"j  c #252B59",
"k  c #2C3156",
"l  c #373A55",
"z  c #2E334E",
"x  c #2A3266",
"c  c #353B6B",
"v  c #2E3671",
"b  c #333A78",
"n  c #391548",
"m  c #4C2942",
"M  c #4C2642",
"N  c #522A45",
"B  c #562848",
"V  c #483B45",
"C  c #55334B",
"Z  c #57374A",
"A  c #5D3A54",
"S  c #5B2A53",
"D  c #63294C",
"F  c #62274A",
"G  c #66314E",
"H  c #603F56",
"J  c #6A3756",
"K  c #78355A",
"L  c #702E53",
"P  c #733767",
"I  c #3D424D",
"U  c #3B436B",
"Y  c #3B4476",
"T  c #43464E",
"R  c #49464A",
"E  c #574849",
"W  c #484854",
"Q  c #554655",
"!  c #4D5358",
"~  c #545B5B",
"^  c #54585B",
"/  c #5B574B",
"(  c #685944",
")  c #644258",
"_  c #6C4F53",
"`  c #6F6841",
"'  c #6B6644",
"]  c #726B42",
"[  c #736543",
"{  c #7B7345",
"}  c #7A7148",
"|  c #73745F",
" . c #4A4D63",
".. c #595A6A",
"X. c #4E5171",
"o. c #6A4C61",
"O. c #614E60",
"+. c #7A4364",
"@. c #685765",
"#. c #765A6D",
"$. c #6A646A",
"%. c #67697A",
"&. c #7A706B",
"*. c #5F6071",
"=. c #893964",
"-. c #953969",
";. c #9C396C",
":. c #963668",
">. c #913766",
",. c #847C49",
"<. c #877849",
"1. c #8A7456",
"2. c #92765A",
"3. c #896D55",
"4. c #8E4D71",
"5. c #A14676",
"6. c #A3527F",
"7. c #84647A",
"8. c #8F766F",
"9. c #98625D",
"0. c #8D844D",
"q. c #92854D",
"w. c #8C8553",
"e. c #958C51",
"r. c #998955",
"t. c #9C9354",
"y. c #99925D",
"u. c #A19655",
"i. c #A49956",
"p. c #A59B59",
"a. c #A89E5A",
"s. c #A48C58",
"d. c #ABA25C",
"f. c #B2A85E",
"g. c #948B6C",
"h. c #A5957B",
"j. c #BB9271",
"k. c #AF8D6D",
"l. c #B5AA62",
"z. c #BDB365",
"x. c #A4A278",
"c. c #B4AC6E",
"v. c #C7A959",
"b. c #CC9A7A",
"n. c #C49578",
"m. c #D19E7E",
"M. c #C4BA68",
"N. c #CBAE75",
"B. c #CCC26B",
"V. c #D2C86F",
"C. c #D5CB70",
"Z. c #D2C977",
"A. c #353E85",
"S. c #3A4388",
"D. c #4B558C",
"F. c #5C6598",
"G. c #6E7083",
"H. c #777886",
"J. c #6A7090",
"K. c #5C68A4",
"L. c #6C77AA",
"P. c #94568B",
"I. c #A65F89",
"U. c #AA5986",
"Y. c #8D7687",
"T. c #97778F",
"R. c #A8628B",
"E. c #B96D99",
"W. c #B66895",
"Q. c #B26B97",
"!. c #7683B6",
"~. c #7987C3",
"^. c #878896",
"/. c #9B8695",
"(. c #97979E",
"). c #8F8987",
"_. c #B89A88",
"`. c #A28B9B",
"'. c #AC9093",
"]. c #AFA691",
"[. c #8389A3",
"{. c #9198AB",
"}. c #A997A4",
"|. c #B190A6",
" X c #B5A5AB",
".X c #B6A7B1",
"XX c #B9ACB6",
"oX c #BAB4BA",
"OX c #AAAAAF",
"+X c #C69D83",
"@X c #D3A587",
"#X c #DBB496",
"$X c #CDAF8D",
"%X c #E2BA9D",
"&X c #C2B7BB",
"*X c #C8AFAC",
"=X c #E4BEA2",
"-X c #C49AA2",
";X c #D3CD8D",
":X c #E3DD97",
">X c #EAE59B",
",X c #D1C2B8",
"<X c #EAC5A9",
"1X c #E8C2A6",
"2X c #ECE8AB",
"3X c #F4F1B3",
"4X c #8C9EC4",
"5X c #BABAC1",
"6X c #BBA7C5",
"7X c #C7BCC4",
"8X c #CBC6C9",
"9X c #D2C9CF",
"0X c #D5CBCB",
"qX c #D4CAD2",
"wX c #DBD3D9",
"eX c #DDD9DD",
"rX c #D7D3D7",
"tX c #CECFD0",
"yX c #E2D7D7",
"uX c #E8E3DF",
"iX c #DDDEE1",
"pX c #E2DDE1",
"aX c #EDEBED",
"sX c #E7E5E8",
"dX c #F0EDEA",
"fX c #EFEFF1",
"gX c #F1EFF1",
"hX c #F4F3F4",
"jX c #FDFCFD",
"kX c #FEFEFE",
"lX c white",
"zX c #FFFEFE",
"xX c #FEFDFE",
"cX c #FFFFFF",
"vX c #F9F7F7",
"bX c #F2F1F1",
/* pixels */
"lXlXlXlXlXlXlXlXlXlXlXlXlXlXlXlXlXlXlXlXlXlXlXlXlXlXlX/.m J E.W.:.5.E.W.B Z 9XlXlXlXlXlXlXlXlXlXlXlXlXlXlXlXlXlXlXlXlXlXlXlXlXlX",
"lXlXlXlXlXlXlXlXlXlXlXlXlXlXlXlXlXlXlXlXlXlXlXlXlXlXlX`.m G U.5.J +.6.6.B Z qXlXlXlXlXlXlXlXlXlXlXlXlXlXlXlXlXlXlXlXlXlXlXlXlXlX",
"lXlXlXlXlXlXlXlXlXlXlXlXlXlXlXlXlXlXlXlXlXlXlXlXlXlXlX`.m F ;.=.T Q :.:.N Z qXlXlXlXlXlXlXlXlXlXlXlXlXlXlXlXlXlXlXlXlXlXlXlXlXlX",
"lXlXlXlXlXlXlXlXlXlXlXlXlXlXlXlXlXlXlXlXlXlXlXlXlXeX7XT.J K 4.+.T Q :.:.N Z qXjXlXlXlXlXlXlXlXlXlXlXlXlXlXlXlXlXlXlXlXlXlXlXlXlX",
"lXlXlXlXlXlXlXlXlXlXlXlXlXlXlXlXlXlXlXlXlXlXlXlXjX/.7 4.E.I.~ ^ T Q -.:.M C qXlXlXlXlXlXlXlXlXlXlXlXlXlXlXlXlXlXlXlXlXlXlXlXlXlX",
"lXlXlXlXlXlXlXlXlXlXaX9X9X9XeXjXlXlXlXlXlXlXlXlXjX/.7 +.W.7.~ ^ T Q -.:.J ) XXqXgXlXlXlXlXlXlXlXlXlXlXlXlXlXlXlXlXlXlXlXlXlXlXlX",
"lXlXlXlXlXlXlXlXlXjX.Xm m m 7.aXjXlXlXlXjXlXlXjXvX/.7 L ;.4.~ ^ T Q :.;.W.W.J 0 7XlXlXlXlXlXlXlXjXjXlXlXlXlXlXlXlXlXlXlXlXlXlXlX",
"lXlXlXlXlXlXlXlXlXjX.X7 M C 7.9XwXwXwXwXwXhXjXsXwXY.N L =.+.^ ! T W =.-.I.R.J M  XwXaXlXaXwXwXwXwXwXwXwXwXwXwXwXwXwXwXaXlXlXlXlX",
"lXlXlXlXlXlXlXlXlXjX.X8 J W.P.) ) H H H ) rXhX/.A K :.J W W T T T T W W W Q =.:.J ) .XjXXXA ) H H H H H H H H H H ) ) XXlXlXlXlX",
"lXlXlXlXlXlXlXlXlXjX.X8 J W.6.B N N N N Z &XwXY.m K ;.J T T T T T T T T T W =.;.D N `.eX}.N N N N N N N N N N N m 0 0  XlXlXlXlX",
"lXlXlXlXlXlXlXlXlXjX.X7 D 5.5.I.I.I.I.R.I.#.o.=.=.:.;.K T W ~ ^ T T T T T T =.;.:.=.+.o.4.R.I.I.I.I.I.I.I.R.I.-.=.B 9  XlXlXlXlX",
"lXlXlXlXlXlXlXlXlXjX.X7 F ;.5.W.E.E.E.E.W.G 0 K ;.:.:.J T W ~ ^ T T T T T T =.:.:.;.L 0 +.E.E.E.E.E.E.W.W.E.W.5.:.G C .XlXlXlXlX",
"lXlXlXlXlXlXlXlXlXjX.X7 F ;.4.#.@.O.O.O.O.K =.:.;.G 1 V T T W W T T T T T T w 1 K ;.5.I.4.^ @.$.$.$.@.V Z R.W.J G }.9XsXlXlXlXlX",
"lXlXlXlXlXlXlXlXlXjX.X7 F ;.4.~ ^ T T T T =.;.:.;.C = 3 T T T T T T T T T T , = K ;.U.E.7.I W ~ ~ ~ ! - , R.W.C C XXlXlXlXlXlXlX",
"lXlXlXlXlXlXlXlXlXjX.X7 F ;.=.W W ^ ! T T V q q m 1 - , 2 3 T T T T T T 3 2 ; - 1 q Z Z R T I 3 3 3 3 - , 4.5.B C XXjXlXlXlXlXlX",
"lXlXlXlXlXlXlXlXlXjX.X7 F ;.=.T T ~ ~ T T 2 - - - - - - - 2 T T T T T T ; - - - - - - - 3 T h - - - - - 1 =.:.B C XXlXlXlXlXlXlX",
"lXlXlXlXlXlXlXlXlXjX.X7 D ;.=.R T ~ ~ 4 3 | g.' r > = / g.| 3 3 3 3 T T , ; y ' > - r ' 1.].| - - - 1 G G L K T.}.eXlXlXlXlXlXlX",
"lXlXlXlXlXlXlXlXlXjX.X9 D ;.=.W T ~ ^ , 2 $X2Xy.i r + g.2X].- = - , T T ; ; ,.i.r = ' u.N.3Xx.- - - 1 :.:.M C qXlXlXlXlXlXlXlXlX",
"lXlXlXlXlXlXlXlXlXjX9XY.7.K G h h ! ! 3 4 ;X2Xc.e.} y h.2X;X` ' y y h h y y x.N.} y w.f.;X3Xx.- 4 ) ) K K M C qXlXlXlXlXlXlXlXlX",
"lXlXlXlXlXlXlXlXlXlXlXlX&Xm 1 - , T T T W ;X2X;XC.z.i.;X2X:XC.B.i.0.; 5 e.a.:X3Xc.p.M.C.:X3Xx.= Z E.R.S S 0 C 9XlXlXlXlXlXlXlXlX",
"lXlXlXlXlXlXlXlXlXlXlXlXoXm 1 - ; h h R / $X:XZ.M.p.0.c.:X;Xf.l.c.d.r r p.l.;X:Xd.0.d.M.Z.>Xx.r _ U.6.S C 7.Y.pXlXlXlXlXlXlXlXlX",
"lXlXlXlXlXlXlXlXlXlXlXlXoXm 1 - - - ; u ] z.V.f.i.,.p t.V.f.i w.2X;X} } M.V.V.V.0.i 0.u.l.C.z.u.2.:.=.0 C eXhXjXlXlXlXlXlXlXlXlX",
"lXlXlXlXlXlXlXlXlXlXlXlXoXm 9 1 , - ; u ] l.M.a.e.0.,.t.z.d.,.y.:X;X] ] z.M.M.M.t.,.0.e.d.M.z.d.s.9.=.0 N XX8XhXlXlXlXlXlXlXlXlX",
"lXlXlXlXlXlXlXlXlXlXlXjXoXm m S N ; ; u ] e.i.,.i p.V.t.] 0.B.M.p.t.] ] t.i.u.u.z.B.e.` ,.i.f.B.M.u.2.0 9 C ) qXlXlXlXlXlXlXlXlX",
"lXlXlXlXlXlXlXlXaXeXeXeX}.N N J H w r ` ] q.e.,.] p.V.t.i 0.B.z.t.e.} } e.t.t.e.z.B.t.} 0.e.a.M.z.a.r.e e N E oXeXeXeXgXlXlXlXlX",
"lXlXlXlXlXlXlXlX/.Z Z Z E ' ,.M.M.M.z.u.t.} ] 0.t.u.a.0.i { i.e.] } j.j.} ] ] ] e.p.z.B.i.` ] ] 0.B.M.t.e.e.r._ Z Z C XXlXlXlXlX",
"lXlXlXlXlXlXlXlXT.9 0 7 e i ,.M.B.B.B.a.t.} i q.i.u.t.,.] ,.t.e.` <.n.n.} ` ] ] q.t.z.V.a.` ` p ,.M.M.i.u.t.e.Z 0 0 9  XlXlXlXlX",
"lXlXlXlXlXlXlXlXT.9 F :.J 2 r } { { ,.t.t.} ` a.B.t.] r.j.s.] <.j.n.%X%Xn.j.j.j.1.] d.V.B.M.w.2 r } { } ] r 4 K =.B 9  XlXlXlXlX",
"lXlXlXlXlXlXlXlX/.N L ;.L - > p p p ` e.t.} ` d.C.t.u r.b.k.] 1.b.@X1X1X@Xb.b.b.1.p a.B.B.C.e.; 4 p p p u 5 , =.:.G m .XlXlXlXlX",
"lXlXlXlXlXlXlXlXpX8X`.B N 1 1 > > > > r r p ` e.d.0.i r.b.+X$X#X%X=X<X<X%X%X@Xb._ e ( ,.e.d.d.d.w.> > > 4 K K D G `.8XsXlXlXlXlX",
"lXlXlXlXlXlXlXlXlXjXXXN m 9 1 - - - - - ; y ] 0.u.,.i r.b.@X<X<X<X<X<X<X1X1X@Xb._ 9 t i ,.u.f.V.p.; - - , =.:.S A XXjXlXlXlXlXlX",
"lXlXlXlXlXlXlXlXlXlXeX XY.0 9 1 9 G G t y e.a.w.{ g.].8.+.8.@X#X<X<X<X1X#X@X9.+.Y./.@.r r y ' e.} ; ; 9 m D J `. XpXlXlXlXlXlXlX",
"lXlXlXlXlXlXlXlXlXlXlXlXoXm 9 9 B :.;.[ ] M.C.e.i ].rXY.n ) n.@X<X<X<X1Xb.n.A n }.tX$.- - = 4 ] y - , S S 0 N 9XjXlXlXlXlXlXlXlX",
"lXlXlXlXlXlXlXlXlXlXlXlXeX}.}.}./.K L ) _ w.t.y o ).sX}.P 7.#X#X<X<X<X<X#X#X7.P 6XiX$.X . - > r w 1 1 M C /.}.sXlXlXlXlXlXlXlXlX",
"lXlXlXlXlXlXlXlXlXlXlXlXlXlXlXlXwXZ 9 S S ( u o   ).jX6XP.Q.<X<X<X<X<X<X<X<XT.P.qXfX$.  X - - = , 7 0 9 C sXlXlXlXlXlXlXlXlXlXlX",
"lXlXlXlXlXlXlXlXlXlXlXlXlXlXlXlXsX}./.A N ( i o   &.0X*X|.-X<X<X<X<X<X<X<X<X|.|.*X,X/   X - ; 1 Q /././.`.gXlXlXlXlXlXlXlXlXlXlX",
"lXlXlXlXlXlXlXlXlXlXlXlXlXlXlXlXlXvXsXA 9 u i o   ( m.#X<X<X<X<X<X<X<X<X<X<X<X<X@Xb.t   X - 1 9 &.sXvXvXvXlXlXlXlXlXlXlXlXlXlXlX",
"lXlXlXlXlXlXlXlXlXlXlXlXlXlXlXlXhX9X&XZ 9 t y o X t 2.k._.$X<X1X%X%X%X%X1X1X_._.8.2.w X . , 1 9 @.oX9XvXlXlXlXlXlXlXlXlXlXlXlXlX",
"lXlXlXlXlXlXlXlXlXlXlXlXlXlXlXjXwXA m 9 7 7 9 7 7 6   & s ..<X=Xb.b.b.m.=X1XW s X   6 7 7 9 7 7 9 m o.aXlXlXlXlXlXlXlXlXlXlXlXlX",
"lXlXlXlXlXlXlXlXlXlXlXlXlXlXlXlXpX#.o.o.o.o.o.o.o.1   & $ W _._._._._._._._.l $ X   1 o.o.o.o.o.o.o.7.gXlXlXlXlXlXlXlXlXlXlXlXlX",
"lXlXlXlXlXlXlXlXlXlXlXlXlXlXlXlXlXjXjXjXjXjXjXvXvXH.O @ $ O   : [.[.4X[.=   O a % % (.jXjXjXjXjXjXjXjXlXlXlXlXlXlXlXlXlXlXlXlXlX",
"lXlXlXlXlXlXlXlXlXlXlXlXlXlXlXlXlXlXlXlXlXlXlXaXiXG.% g z g : 4 ^.[.{.{.3 : g z $ @ ^.iXaXlXlXlXlXlXlXlXlXlXlXlXlXlXlXlXlXlXlXlX",
"lXlXlXlXlXlXlXlXlXlXlXlXlXlXlXlXlXlXlXlXlXjXfX^.l g $ %.OXoXtX,Xn.n.+X+X8XtXoXOX .$ g l ^.lXlXlXlXlXlXlXlXlXlXlXlXlXlXlXlXlXlXlX",
"lXlXlXlXlXlXlXlXlXlXlXlXlXlXlXlXlXlXlXlXlXsXwX%.% $ a %.XX8XsX0Xj.n.n.n.wXiX5XoX .a $ @ %.sXaXlXlXlXlXlXlXlXlXlXlXlXlXlXlXlXlXlX",
"lXlXlXlXlXlXlXlXlXlXlXlXlXlXlXlXlXlXlXlXhXH.W z $ j b c l %.8XOXR R R E XX5X..l c b j s z  .^.vXlXlXlXlXlXlXlXlXlXlXlXlXlXlXlXlX",
"lXlXlXlXlXlXlXlXlXlXlXlXlXlXlXlXlXlXlXlXfX .% $ s x S.x a  .oX(., , , h OXoXI $ v S.j s $ % %.hXlXlXlXlXlXlXlXlXlXlXlXlXlXlXlXlX",
"lXlXlXlXlXlXlXlXlXlXlXlXlXlXlXlXlXlXlXlXfX .% Y F.U f x v c  .W - ; ; , W  .c v j j X.F.U O G.hXjXlXlXlXlXlXlXlXlXlXlXlXlXlXlXlX",
"lXlXlXlXlXlXlXlXlXlXlXlXlXlXlXlXlXlXlXlXhX .% D.~.X.@ x S.v # @ : : + + # # b S.j $ D.~.D.O G.hXlXlXlXlXlXlXlXlXlXlXlXlXlXlXlXlX",
"lXlXlXlXlXlXlXlXlXlXlXlXlXlXlXlXlXlXhXH.%.h < l U g O d j W 1.<.<.q.h.h.[ ( l j a @ k U k < T %.(.hXlXlXlXlXlXlXlXlXlXlXlXlXlXlX",
"lXlXlXlXlXlXlXlXlXlXlXlXlXlXlXlXlXlXaXz % , 2 < $ @ O @ $ E v.v.v.M.>X>Xs.<.h $ @ O @ $ < 2 < % *.aXjXlXlXlXlXlXlXlXlXlXlXlXlXlX",
"lXlXlXlXlXlXlXlXlXlXlXlXlXlXlXlXbX*X X8.&.3 < < < ..(...$ 3 ( <.v.v.z.c.( r < @ %.^.! < < + V 8.). X,XvXlXlXlXlXlXlXlXlXlXlXlXlX",
"lXlXlXlXlXlXlXlXlXlXlXlXlXlXlXlXuXg.2.#X=XV O = ; (.lX^.$ % & 4 v.v.q.<.< O O O 5XvXH.- + & O.<X$X2.h.hXlXlXlXlXlXlXlXlXlXlXlXlX",
"lXlXlXlXlXlXlXlXlXlXlXlXlXlXlXlXsX8.2.$X#X_ E r r 8.oXG.j l *.$.<.<.i ( ....k g ^.OX&.w R E 8.#X+X1.h.hXlXlXlXlXlXlXlXlXlXlXlXlX",
"lXlXlXlXlXlXlXlXlXlXlXlXlXlXlXlXuX8.2.n.b.b.b.s.2.V & j A.L.fXoX+ : : 2 tXsXF.A.d O E 1.k.m.b.N.j.1.h.hXlXlXlXlXlXlXlXlXlXlXlXlX",
"lXlXlXlXlXlXlXlXlXlXlXlXlXlXlXlXaX]._.j.j.j.k.3.( 4 O c F.L.5X(.I I W ! OXoXL.F.z % w ( 3.j.j.j.j._.].vXlXlXlXlXlXlXlXlXlXlXlXlX",
"lXlXlXlXlXlXlXlXlXlXlXlXlXlXlXlXlXvXdXg.1.1.3.4 O # $ %.7X(.^ ..[.[.4X{.....OX8X .$ @ O V 2.1.1._.dXvXlXlXlXlXlXlXlXlXlXlXlXlXlX",
"lXlXlXlXlXlXlXlXlXlXlXlXlXlXlXlXlXlXhX_.h.h.h.R O @ # %.oX(. ...J.J.!.L.X.X.{.5X .# @ % Q _.h.h.*XhXjXlXlXlXlXlXlXlXlXlXlXlXlXlX",
"lXlXlXlXlXlXlXlXlXlXlXlXlXlXlXlXlXlXlXdXdXaXuX%.% % O X.!.K.S.b g g g g b S.L.!.l O % @ G.dXdXdXbXlXlXlXlXlXlXlXlXlXlXlXlXlXlXlX",
"lXlXlXlXlXlXlXlXlXlXlXlXlXlXlXlXlXlXlXlXlXjXfX^.l < O U L.K.A.v $ $ $ s b S.K.L.k O g l ^.lXjXlXlXlXlXlXlXlXlXlXlXlXlXlXlXlXlXlX",
"lXlXlXlXlXlXlXlXlXlXlXlXlXlXlXlXlXlXlXlXlXlXlXsXeXG.O j S.b d s % % % % s f Y D.d % ^.eXaXlXlXlXlXlXlXlXlXlXlXlXlXlXlXlXlXlXlXlX",
"lXlXlXlXlXlXlXlXlXlXlXlXlXlXlXlXlXlXlXlXlXlXlXvXaXH.@ j S.v s $ < < < < $ s v S.d * (.hXvXlXlXlXlXlXlXlXlXlXlXlXlXlXlXlXlXlXlXlX",
"lXlXlXlXlXlXlXlXlXlXlXlXlXlXlXlXlXlXlXlXlXlXhX^.l X.L.X.f d O W rXrXrX5Xl @ d f D.K.X.T (.lXlXlXlXlXlXlXlXlXlXlXlXlXlXlXlXlXlXlX",
"lXlXlXlXlXlXlXlXlXlXlXlXlXlXlXlXlXlXlXlXlXlXaXG.& X.~.X.$ $ O  .lXlXlXiXW % # $ F.!.U % H.lXlXlXlXlXlXlXlXlXlXlXlXlXlXlXlXlXlXlX",
"lXlXlXlXlXlXlXlXlXlXlXlXlXlXlXlXlXlXlXlXlXlXfXG.O c D.c a $ O  .lXlXjXeXW % $ $ Y D.k @ H.lXlXlXlXlXlXlXlXlXlXlXlXlXlXlXlXlXlXlX"
};
