/* XPM */
static char *cedff1b392634ef08dc9187d87d75f34DMmYzSzeFGcTt944[] = {
/* columns rows colors chars-per-pixel */
"64 64 209 2 ",
"   c #010000",
".  c #0C0605",
"X  c #0E0608",
"o  c #0F0804",
"O  c #140606",
"+  c #1A0606",
"@  c #140B05",
"#  c #1B0A06",
"$  c #130608",
"%  c #180808",
"&  c #1E1106",
"*  c #250605",
"=  c #2A0705",
"-  c #240B06",
";  c #2C0A05",
":  c #250A08",
">  c #290909",
",  c #340705",
"<  c #330C05",
"1  c #3B0D04",
"2  c #350C08",
"3  c #2D1406",
"4  c #261506",
"5  c #341205",
"6  c #3B1204",
"7  c #3B1B06",
"8  c #321C04",
"9  c #372304",
"0  c #212131",
"q  c #242639",
"w  c #26293D",
"e  c #2A2C3D",
"r  c #430D05",
"t  c #4A0D04",
"y  c #431405",
"u  c #4C1405",
"i  c #441B04",
"p  c #4B1C04",
"a  c #481C08",
"s  c #531D04",
"d  c #5D1D05",
"f  c #5A1807",
"g  c #4C2405",
"h  c #472406",
"j  c #542305",
"k  c #5B2305",
"l  c #542904",
"z  c #5D2A06",
"x  c #5B2909",
"c  c #5C3206",
"v  c #622506",
"b  c #632906",
"n  c #692D09",
"m  c #662C08",
"M  c #752908",
"N  c #623204",
"B  c #65310B",
"V  c #6C330B",
"C  c #6D3607",
"Z  c #72350A",
"A  c #743B0C",
"S  c #7A3D0D",
"D  c #773706",
"F  c #7C3D11",
"G  c #79450B",
"H  c #6A4008",
"J  c #78573D",
"K  c #272B40",
"L  c #292E43",
"P  c #2E3144",
"I  c #2D334C",
"U  c #323545",
"Y  c #353846",
"T  c #383B47",
"R  c #31364A",
"E  c #343A4D",
"W  c #3A3E4C",
"Q  c #2F3651",
"!  c #2F3854",
"~  c #303753",
"^  c #333A54",
"/  c #383E51",
"(  c #343D5B",
")  c #3D414D",
"_  c #3C4254",
"`  c #37405C",
"'  c #3B435C",
"]  c #364161",
"[  c #3A4563",
"{  c #3E4966",
"}  c #3A4669",
"|  c #3C4A6C",
" . c #3E4C72",
".. c #41444E",
"X. c #414655",
"o. c #40475B",
"O. c #444B5C",
"+. c #474D57",
"@. c #4E545E",
"#. c #755B46",
"$. c #7D614C",
"%. c #796355",
"&. c #444D62",
"*. c #414D6B",
"=. c #475063",
"-. c #4B5465",
";. c #45516D",
":. c #4B566A",
">. c #4E596D",
",. c #535B65",
"<. c #525C6D",
"1. c #585F64",
"2. c #404E73",
"3. c #445274",
"4. c #495674",
"5. c #4D5A75",
"6. c #425279",
"7. c #485779",
"8. c #4C5B7D",
"9. c #525E74",
"0. c #515F79",
"q. c #5C646C",
"w. c #586067",
"e. c #556174",
"r. c #5B6776",
"t. c #54627C",
"y. c #59667B",
"u. c #5D6A7C",
"i. c #5D6976",
"p. c #7E6D63",
"a. c #626B74",
"s. c #616E7D",
"d. c #65717D",
"f. c #6A757B",
"g. c #6B767A",
"h. c #707A7B",
"j. c #823D0C",
"k. c #883F0C",
"l. c #83440C",
"z. c #8B4708",
"x. c #9B4D09",
"c. c #934A0B",
"v. c #985409",
"b. c #8C4B14",
"n. c #93521A",
"m. c #9A5514",
"M. c #914A10",
"N. c #A95C0B",
"B. c #AA5A11",
"V. c #9F6419",
"C. c #B46312",
"Z. c #B3710C",
"A. c #8D5B2D",
"S. c #B06D29",
"D. c #84654B",
"F. c #856B56",
"G. c #947658",
"H. c #B97B41",
"J. c #877265",
"K. c #937D6B",
"L. c #8B7C74",
"P. c #998169",
"I. c #938274",
"U. c #9C8976",
"Y. c #A28C75",
"T. c #B69C77",
"R. c #4F5F80",
"E. c #546482",
"W. c #586781",
"Q. c #5C6B85",
"!. c #5E6E88",
"~. c #616F83",
"^. c #637285",
"/. c #6B7986",
"(. c #64748A",
"). c #6B7B8D",
"_. c #697787",
"`. c #727D83",
"'. c #6E7E90",
"]. c #73828D",
"[. c #79868A",
"{. c #798587",
"}. c #758593",
"|. c #738392",
" X c #7A8A96",
".X c #7A8A95",
"XX c #7E8E98",
"oX c #788792",
"OX c #818D8C",
"+X c #86928E",
"@X c #818E93",
"#X c #839195",
"$X c #84949B",
"%X c #8B9A9D",
"&X c #8A9796",
"*X c #919E97",
"=X c #928681",
"-X c #A39583",
";X c #95A29C",
":X c #98A69F",
">X c #8D9DA0",
",X c #93A3A3",
"<X c #9AAAA5",
"1X c #9DADA9",
"2X c #99A7A1",
"3X c #A0AFA8",
"4X c #A3B3AC",
"5X c #A8B8AF",
"6X c #AABAB0",
/* pixels */
"3.).E.7.8.Q.(.7.;.R 5.^.) { oX].( 0 q e 0 e i.0.^ &.).r.0 e /.|.).0.` :.).Q.E.|.|.|.XXW.7.] &.|.$X1X).4.7.).}.>X6X5X1X).R.).).^.",
"6.(.8.6.6.E.).y.L q } R q <.|.!.( w 5.+XY 0 e w 0 ~ t.e.0 e ^.]._ e ^ 2.{ ^ 8.(.E.).1X(.6. .5.$X3X}.8.I } Q.W.8.(.).E.).).).'.W.",
" .(.8.6. .7.E.^.] w } } w {.}.7.( L E.3Xd.L 0 0 0 q L P 0 e _.<Xt.L q ^  .3.(.}.,X XXXE.6.6.E.$X1XE.Q.*. .7.W.E.7.*.I E.,X X|.,X",
"L 4.Q.8. .6.7.E.Q.] I | } O.`.'. .( ^ (.,Xd.{ >.W 0 +.{.( q _ [.,Xt.L q ^ 6.E.|.$X<X X(.8.6.7.Q.$X%XW.Q.7.6.8.E.E. .( ^ ^.,X XXX",
"0 I 4.W.8.6.6.8.(.6.( Q | [ [.{.I Q ] 7.XXQ.W.E.^ 0 1.4Xe.q w ^.4X X;.L I | ( t.).$X(.(.(.8.6.7.(.4X).>X).Q.Q..XoX} Q [ Q.$X<XXX",
"q I ! y.E.6.6.7.E.E.2.w I } '.a.w &.).8.(.Q.W.W.*.~ 9.$X5.w ^ #X,X).*.~ ] | ' E.E.=.3. XXX9.] | &.%X,X,X X%X|.oX%Xs.q ` _.}.4X}.",
"w Q Q 4.8.6.6. .8.(.3.w L } W.-.w >.%XW.W.Q.E.W.E.8.8.E.} w ' $X XE.I L [ 7.E.y.` ~ ~.>X$X<.( ] Y $X%X%XoX>X|.(.$X{.0 e y.|.4X|.",
"q L 3.7.6.6. .6.E.Q.[ I ( ] t.-.q ^ ^.).(.E.Q.E.W.W.8.8.} q q t.).W.' q R E.W.` e y.,X$X|.W.| ( O.1X(.$XoX(.oX X X_.L w 3.).,XXX",
"L 3.Q.8.6.6.6.E.Q. .K [ L 0 -.>.^ 4.*.).<X|.E.Q.E.E.).|.;.q q | (.).5.I / Q.3.L e [.oX X}.y.^ ~ Q.4X|.8.(.E..X%X%X,X} w [ Q.(.).",
"] Q.E.6.6.6.E.Q.6.[ w | I 0 -.Q.8.y.L 4.).E.Q.E.y.9.^.4Xs.q q | (.E.~ 0 I 8.Q.3.L e y.,X$X:.I 3.}.4X}.E.(.).Q.(.$X,X5.w w | 8.Q.",
"w { Q.8.6.E.(.8.| w w y.3.I :.Q.E.e.L 3.).(.7.Q.&.e 1.4X^.e q | (.E.^ 0 I 6.E.).3.L | ).oXE.( ~ Q.4XXX).W.(.).).|.$X>X4.I | (.E.",
"q w y.E.6.E.).Q.| q w r./ ^ y.).Q.*.K 7.,XQ.~ { 6.^ 1.4X_.[ w | (.).5.I I 8.|.,X^.*.6.%X%XW. .4.).$X1X X,XXX).).|.}.XX%X~.7.(.8.",
"0 0 { 6.6.7.E.(.6.] w *.L q >.Q.E.e.L 4.|.8.y.7.E.0.^.4X^.L q | (.E.( q I 8.).y.E P y.1X>X:.^ 8. X1XXXE.}.}.W.Q.$X>X4.X.E  .8.Q.",
"0 0 w [ 6.8.(.(.| L w 9.U Q t.).W.*.K 7.>XE._ | 7.{ q.4Xd.q q | (.(.4.I I 8.}.%Xu.{ 7.,X>Xt.} 8.|.%X<X|.,X$X(.). X X).OXr.7.W.E.",
"0 0 0 K ] 8.Q.(.| q w u.*.Q *.^.Q.[ K 6.(.Q.{ Q ;.4.s.4Xd.w q | (.>Xi.Q *.(.}.$X|.(.Q.XX).8.6.8. X,X%X}.$X X|.|.$X>XXX5X}.(.).8.",
"0 0 0 0 ^ 6.7.5.I 0 0 _ ^ w ^ 8.8.| (  .6.&.^ w ' 8.E./.X.0 0 I 5.'.O.K _ :.E.E.E.E.E.:.` Q ] 7.Q.|.W.E.E.E.E.E.u.a.Q.|.W.E.E.7.",
"0 0 0 0 L ( ( Q 0 0 0 0 0 0 L ( ( ( ( ( p.C.c.a j Z s s p Z C d s S k h b l.v x x.v b.$.0 0 K ( ( ( ( ( ( ( ( ( I w ^ ( ( ( ( ( ",
"0 0 0 0 0 0 0 0 0 0 0 0 0 0 0 0 0 0 0 0 #.l.a , y y a u k s 6 i r , v , - i < p M 1 V J 0 0 0 0 0 0 0 0 0 0 0 0 0 0 0 0 0 0 0 0 ",
"0 w 0 q q q K L P K K K K 0 0 0 0 0 0 0 J A < * b G t Z Z.z.D n G ; % < t p d B Z = B #.P U U U P K w 0 0 q P w 0 0 0 0 0 0 0 0 ",
"P 4.R [ ( ^ 6.t.).7.4.2.3.^ e q 0 0 w L F.S = < k y D l.< 6 1 5 5 ; 1 < - 6 j # g * V J.W.(.^.^.Q.7.3.P L { Q.O.0 0 0 0 0 0 0 0 ",
"3.,XQ.W.8. .7.}.<X).).E.Q.^.5.^ q R 4.4.I.j.1 i j 6 S i i ; ; 5 < < j % 1 ; 6 u 1 * V K.(.(.8.8.8.(.(.7.y.(.).O.0 0 q 0 0 q q q ",
").4XXXE.7.` ~ t.).E.).,X(.8.7. .4./.,X).I.S y 1 < 1 < p p 1 1 1 1 s < d r 5 6 t i , k.T.1X%X).Q.7.7.8.Q.E.8.7.~ 0 L ] q q ( } } ",
"%X).,XXXE. .( I E.>XW.|.).8.E.E.[ _ (.,X-XS g ; = < l j j y k N a i 5 < a % G 6 1 t B D.) h.,X).(.6.6.8.Q.8.^ q P 4.Q.| [ I L [ ",
"2XO.9.%X$XE.] K 7. X(.E.>X(.7.{ w 0 ~ Q.U.S * * < N i l ; ; % % 7 5 j 5 ; * ; 1 < a V D.[ O.-.(.,X(.7.6.8.^ q 0 @.<X>X8.(.#X&XO.",
"].Y L e.'.W.] q o.%X|.8.oXW.] K w ( ^ ^ J.S = 1 i < 5 5 9 ; % # . % 8 l 5 * $ * 6 l V G.Q.4.^ &.%X>X8.6.2.L _ f.[.'.).).,X|.q.,.",
"u.U 0 L 9.W.] 0 Y @XQ.' [.!.Q 0 I | I w J.S < 6 6 < ; - % & 8 @ # $ X 7 7 ; % 5 y H V P.|.W.( P ).4X(.7.E.>.].$Xu.( E.>X$X' q `.",
"9.L 0 L 9.W.] 0 Y oX4.L {.)./ 0 I | I q %.Z p g < * ; - 8 4       . . % 5 * < 1 y b V Y.|.(.;.Q ;.>X$X8.E.).XXu.I L E.%XQ.^ I /.",
" .Q q I t.W.] 0 O.<X5.L r.|.:.w I 6.} q %.l.G 1 < % % 7 4 .         . X 3 : p % y s Z Y.(.(.E.[ P ).4X!.7.|.t.I U ,.E.Q.E.E.(.8.",
"3.} w q >.W.] w 5.<X:.w r.|.Q.` L } ] I J.C.p = : : 3 9 @               - # n % 6 s z.U.E.6.7.*.I 4.,X$X8.,Xa.K q.,X(.*.u.XX6Xu.",
"^.E w [ W.W.[ 0 W &XW q r.).).:.q 0 w 3.U.l.5 y = : h @ .             . @ $ z * 6 i c.U.t.7.E.Q.| P /.4XW.$X|.8.E.).y.R W <X6Xq.",
").7.} y.E.E.<.0 R ^.3.e r.E.Q.y.~ 0 w 6.I.G 1 p % - 3 X o             . X O a < y y j.L.6.E.Q.5.^.R 4.1X!.8.XX$XE.6.8.^.5.<XXX%X",
",XE.I 9.E.E.e.w *.(.3.L u.E.W.<.q 0 K 6.P.A d a : g # $ o               # $ 6 5 1 j M.=X6.E.<.+.2Xs._ :XXX8.(.~.] ~ Q.>XE.|.E.R.",
"1XE.} 3.7.E.e.0 E ^.6.L +X(.W.y.^ w } | $.z.D h z z - X 4             . & % 6 y < s S U.t.E.<.P (.%XW `.1X(.Q.-.Q y.>X!.).<X}.8.",
"<XO.L >.E.E.e.w } 4.I w *X).W.<.w 0 R e.J v.z.5 6 z 4 X 9               # O h u < k n G.E.E.<.0 _ ].;.8.4XXXE.( @.,X}.7.E.XX1XQ.",
" X;.( _ >.W.t.>. .I q ^ 2X).W.t.I 0 P ~.D.S v.6 + l - O -             # X 3 i < 6 p B A.R { 0.<.-.'  .6.,.&X Xo._  X>XQ.8.%XoX(.",
"(.8.6.] 9.W.7.E.} q 0 | XXQ.W.W.( q ` t.G.j.c.6 ; c - # @ .         @ O % 7 y < 6 1 B D.K ' |.%X^.( ^ 5.P i.%X`.' &.XX$XE.).8.XX",
".XQ.[ | W.W.6. .Q 0 q | (.E.W.W.( L | ] F.m.x.6 y a ; - # X .       . O 3 g Z 5 s * j.F.Q ' f.,X$X0.P 5.` ^ @X,Xe.Q >.1XQ.7.E.1X",
"%X%XO.^ 5.E.6.| L 0 q } E.8.E.5.^ ~ } L D.A z.p 5 ; * a % i X O X @ % 3 j < 1 < y r j.$.=.&.Y d.>XoX^ (  .L g.,X|.;._ OX$XQ.XX<X",
"(.<X|.O.[ 6.6.6.3.L q (  .6.| I L } } L F.A M k < ; 3 ; 7 : > : . + % % + * 1 < * b Z F.`.h.P ~ Q.,Xt.I ( ^ a.,X,X(.3._ &X X<X X",
"8.oX1X.XE.8.E.W.(.2.R W ;.E.=.W W O.5.E $.S V u 1 1 5 * 6 * * % * + O < 1 1 = ; x < Z I.).|.Q.Q. X|.).y.X.d.1X1XXX X).E.Q.).XXW.",
"^.,XXXE.E.XX<X%X(.7.^.&X].%X<X2X2X2X%X^.D.V A p = y < 1 * < * 5 l u i p 1 = = j 6 1 j.U.%X X).4X<X).).,X4X5X5X5X4X<X$X1X1X}.,X X",
"R ;.4.2.2.4.;.W 3. .3.W *.7.5.5.5.:.W | J l.u M ; v ; i 5 ; < < ; * ; < 1 3 p N b 2 j.J.7.y.Q.W.).;.R 5.2X#XQ.~.].#X%XQ.).8.8.^.",
"0 q w w w w q 0 w w w 0 q w w w w q 0 q #.M.a N.< k 1 b b 6 ; ; < 6 6 y < < k v.z.r C.J w L P e P w 0 w T U e L U U T e P w w L ",
"q 0 0 0 0 0 0 0 0 0 0 0 0 0 0 0 0 0 0 0 #.S r l.* h 1 * - C s ; ; a 1 ; * k N.x.Z M N.D.L 0 0 0 0 0 0 0 0 0 0 I Q 0 0 0 0 0 0 0 ",
"{ :.<.&.L 0 0 0 0 0 0 0 0 0 0 0 0 0 q ( p.F < ; * M t ; 6 * g u < < r j Z.V n r , % V P.;.( ( Q 0 q ( :.[ ( ( } | [ <.<.>.' q 0 ",
"Q.E.E.W.9.W 0 0 q I 0 0 0 0 0 0 w ` :.Q.I.j.< = * z k : ; k ; ; y 6 < i 1 = y = i k V Y.(.8.6.| ^ [ oX,X(.W.W.W.W.(. X,X>X8.( q ",
"Q.7.] &.-.=.O.O.o.^ _ w 0 0 0 U :.E.Q.).I.j.* ; , d * % 7 1 n u < y Z + = < ; 1 1 c F K.s.|.(.6.7.!.%X{.~.XXXXXX,X$X X,X$XoXW.' ",
"*.7.( q 0 _ Q.Q.e.U u.P 0 0 P :.Q.Q.E.W.L.S.b.M.l.m.n.n.n.B.n.n.m.V.S.n.b.b.M.m.n.n.H.J.&.%X,X8.8.).Q.L } ,X>X$X1X,X).Q.*.XX%X(.",
"P e.3.L q ` 7. .( P u.P 0 0 ,.(.7.E.Q.] w [ L a.Q.^ ^ Q.E.).Q.L 0 0 &.O.1.4Xs.L 4.1X(.^ ^ /.<X|.E.Q.{ I 0.>X$X|.).(.Q.3.w [ <X$X",
"w ( L 0 ' Q.W.| W P <.W q 0 a.XXW.Q.3.P P | _ [.'.' ~ 8.(.(.7.w 0 0 ( ( q.4Xs.L 4.1XoXt.( O.oX,X).{ I 0.>X X).(.W.6.8.Q.R ..&X X",
"0 0 0 q g.XX6.W.;X;.P e.E 0 ( |.$X8.(.7.y.3.#X|.(.E. .6.7.E.^.P 0 0 ^  .^.4Xs.L 4.1X!.W.t.( ~ ^.*XR 4.>XQ.7.7.7.6.6.8.Q.4.#X(.3.",
"0 q 0 ^ oX$X6.W.<X4.L | 3.P Q E.(.8.).~.R L ;.%X$XQ.6.6.E.%X].P 0 0 ( ( w.4X^.P 5.1XW.7.W.=.q @.;XY ^.|.8.6.6.6.6.8.Q.;.^ 5.Q.^ ",
"q <.U ( Q.(.6.8.oX~.P } Q./ q ( E.(.E.^.P ( P OX.X7.6.6.| @.&XT 0 0 =.&.X.%X,X4.).4XW.6.Q.y.^ +.;X..%XW.6.6.6. .6.7.3._ OX5.R q ",
"q u.3.I [ '.XX8.oX%XU L u._ 0 Q (.>X8.(.| I 0 a.>X|.6.6. .| t.L 0 0 ' ` R ).:XO.;X$X8.6.Q.W.( +.;X..2XE.6.6. .6.R.(.e.Y ).8.} K ",
"q u.' q w f.,X7.(.1X;.w ;.| L q q.1X7.E.Q.e.[ _ d.}.E.6.7.Q.y.L 0 I 5.5.^ &.].5.3X X8.6.Q.>.w Y y.) <X'.7.6. . .7.W.^.{ 8.Q.Q.R ",
"^ ^.e.U L r.}.6.8.$XQ.L P 4._ 0 +.$XE.7.E.).Q.{ ` f.$XW.W.E.t.e 0 ;.(.W.( w =.^.$X|.8.E.E.' w ^ I U #X,XE.6.6.6.6.7.E.E.8.$X(.R ",
"^ ^.(.E L >.(.6.7.).$XO.q _ ` L E (.XX8.E.Q.>.t.{ -.`.).t.[ 5.e 0 e.(.W.&.0 U ).$X(.7.(.:.L X.~.I e Q.4X).7.6.6.6.6.8.).Q.}.&.Q ",
"q u.8.I 0 O.(.6.7.(.>XQ.^ q I ^ ^ E.>XQ.(.{ q :.E.` E E.| ^ u.P 0 :.E.E.4.L Y &X4XE.6.(.O.w a.1X4.L 4.4XXX8.8.8.6.6.8.).).[ q *.",
"E y.;.I P =.W.6.6.6.Q.(.E.^ q L | E.(.^.r.R U ;.W.e.&.6.6.8.y.e 0 ~ 0.E. .( _ ,X1XW.6.e.O.=. X,Xy.I { OX$XQ.(.(.E.8.E.~.e.e U u.",
"(.7.I ] t.Q.8.8.8.8.8.8.(.E.' P O.Q.8.4.^ 3.(.).W.|.$X8.8.Q.7.w 0 0 ' 8.*.^ 7.E.).(.8._ <.$X%XQ.6.| L U #XXX).$X%X).(.4.Y U s.).",
"(.8.4.6.7.E.(.(.).).(.).).).~.s.Q.E.}.|.^.(.).}.|.}. X).(.E.Q.L 0 0 -.).(./.|.).|.Q.(.).|.).W.E.8.6.8.5.t.(.E.E.(.|. X}.].].oX|.",
"4.Q.(.E.E.E.3.E.).(.E.^.).t.` ( 8.|.1X,XE.4.^.%X#X$X,X^.7.Q.4.P 0 0 -.Q.t.XX<X!.<X1X X}.,X4X1X1X>XW.,X2X].t.W.XX$X.X4X4X4X4X3X X",
"w P *.Q.y.' I 7.^.8.Q._ *.~ ^ ^ ~ ;.W ) | I | o.Y ,.(.| L R | e.P 0 ( ` ~ (.1X(.Q.].).,X}.(.).E.W.~.t.X.;.6.6.&.O.7.E.E.E.t.X.*.",
"0 0 w P P q 0 L U I ;.e w q q q q w 0 0 L ( I q 0 w P w 0 0 w U q 0 q q q P ..U L U R ) Y P P Q | R L 0 w K K q q K K K K K 0 w "
};
