/* XPM */
static char *c488b9270d5943ec96b8f550089238e5hLy6Vsj3uNrNJ2Tp[] = {
/* columns rows colors chars-per-pixel */
"40 58 217 2 ",
"   c #010000",
".  c #0B0505",
"X  c #0F0905",
"o  c #0E0608",
"O  c #0F0808",
"+  c #140606",
"@  c #1C0606",
"#  c #140A06",
"$  c #1B0B06",
"%  c #140609",
"&  c #1B0609",
"*  c #140908",
"=  c #1B0A08",
"-  c #1D1304",
";  c #1E1008",
":  c #240605",
">  c #2B0705",
",  c #240B06",
"<  c #2C0A05",
"1  c #230709",
"2  c #280709",
"3  c #240B08",
"4  c #2A0B08",
"5  c #320704",
"6  c #3E0704",
"7  c #330B04",
"8  c #3A0B05",
"9  c #310C08",
"0  c #3D0E08",
"q  c #241205",
"w  c #2C1305",
"e  c #2A1A05",
"r  c #201208",
"t  c #2D1308",
"y  c #341204",
"u  c #3C1304",
"i  c #341906",
"p  c #3C1A05",
"a  c #3B1908",
"s  c #3D1209",
"d  c #2D2306",
"f  c #352106",
"g  c #3B2205",
"h  c #312904",
"j  c #430C04",
"k  c #4B0C04",
"l  c #4E0F08",
"z  c #520D03",
"x  c #431305",
"c  c #4B1305",
"v  c #431B04",
"b  c #4B1B04",
"n  c #441309",
"m  c #471F08",
"M  c #4E1108",
"N  c #531506",
"B  c #5C1506",
"V  c #531B05",
"C  c #5B1B05",
"Z  c #5C1609",
"A  c #581B08",
"S  c #571D08",
"D  c #631C05",
"F  c #6C1E06",
"G  c #671B09",
"H  c #681605",
"J  c #442204",
"K  c #4D2305",
"L  c #472904",
"P  c #4D2B05",
"I  c #4A2508",
"U  c #4F2808",
"Y  c #542304",
"T  c #5A2404",
"R  c #542B05",
"E  c #5A2A04",
"W  c #532308",
"Q  c #5B2109",
"!  c #562D09",
"~  c #5D2D08",
"^  c #553106",
"/  c #5E3304",
"(  c #5D3308",
")  c #543408",
"_  c #632405",
"`  c #6B2605",
"'  c #642C03",
"]  c #6A2C03",
"[  c #6D2708",
"{  c #672B09",
"}  c #742B05",
"|  c #742D09",
" . c #7D2C0A",
".. c #752508",
"X. c #633204",
"o. c #6B3205",
"O. c #663D06",
"+. c #6E3A03",
"@. c #623808",
"#. c #69350A",
"$. c #743404",
"%. c #7C3505",
"&. c #733B06",
"*. c #7B3C05",
"=. c #7A3209",
"-. c #733A0A",
";. c #7C3C0A",
":. c #753309",
">. c #6D4008",
",. c #664207",
"<. c #764306",
"1. c #7C4406",
"2. c #7B4409",
"3. c #7B4A0A",
"4. c #764908",
"5. c #7F510A",
"6. c #882B0A",
"7. c #8A3A06",
"8. c #803708",
"9. c #823D0A",
"0. c #8B3C09",
"q. c #853506",
"w. c #923C0A",
"e. c #A23B0C",
"r. c #834406",
"t. c #8C4E05",
"y. c #844409",
"u. c #8B4A0A",
"i. c #8C4308",
"p. c #924406",
"a. c #9B470B",
"s. c #944E0B",
"d. c #9B4B0D",
"f. c #984A07",
"g. c #865104",
"h. c #8C530A",
"j. c #885709",
"k. c #94520B",
"l. c #9C530C",
"z. c #975606",
"x. c #9D5611",
"c. c #A44C0A",
"v. c #AA4E09",
"b. c #A55E05",
"n. c #A8550E",
"m. c #A45E0C",
"M. c #AA5A0C",
"N. c #A65507",
"B. c #B15F0D",
"V. c #A25710",
"C. c #A65B13",
"Z. c #AA5D13",
"A. c #AB5F18",
"S. c #946308",
"D. c #99600A",
"F. c #AB6207",
"G. c #AA640A",
"H. c #AC6B0C",
"J. c #A6610C",
"K. c #B66709",
"L. c #B37609",
"P. c #AC6114",
"I. c #AE6219",
"U. c #A86D10",
"Y. c #B36515",
"T. c #B56914",
"R. c #B4661B",
"E. c #B66918",
"W. c #BA6D1B",
"Q. c #B8661B",
"!. c #BB7514",
"~. c #BE7323",
"^. c #BF7528",
"/. c #C1731E",
"(. c #C27523",
"). c #C67925",
"_. c #C27628",
"`. c #C47B2B",
"'. c #CA7E2C",
"]. c #C87925",
"[. c #C17D36",
"{. c #BD800F",
"}. c #CF930B",
"|. c #CC812F",
" X c #CC8334",
".X c #CE8638",
"XX c #CF883B",
"oX c #D08738",
"OX c #D08634",
"+X c #CD8B41",
"@X c #D38E44",
"#X c #D08E49",
"$X c #D59045",
"%X c #D5934C",
"&X c #D69652",
"*X c #D89A56",
"=X c #D89D5B",
"-X c #D79A58",
";X c #D99F60",
":X c #D9A163",
">X c #DAA56B",
",X c #DBA86F",
"<X c #D6A977",
"1X c #DBAA74",
"2X c #D7A978",
"3X c #DBAC7A",
"4X c #DEB07E",
"5X c #E0B27F",
"6X c #DEB384",
"7X c #DFB78B",
"8X c #E1B585",
"9X c #E2B788",
"0X c #E3BA8C",
"qX c #E4BC91",
"wX c #E2C19B",
"eX c #E5C7A4",
"rX c #EAD3B7",
/* pixels */
"eXoX/.W.E.E.E.Y.Y.Y.Y.E.E.E.W._.~.E.E.W.W.W.(.)._.^.^.W././.~.^._._.(.(.~._.%X6X",
"qXn.` i.C u x K o.b v b u V V S Y b b b x u =.s.u i a x D.r.C V V Y %.v._ b I.1X",
"9XB.H.>.+ : K ~ v b > : 6 > @.` ~ ( j 9 > 5 0 N + 6 j 6 v ~ b : v >.u.M 5 j V.:X",
"8X-.4 x 6 j x : c S m C j u [ 0 8 < 0 @.M 7 8 D %.j + . x 6 x > j 5 a.k 5 < V.-X",
"4X;.x 9 > y N 5 x H r.2.h.{.L.p.Q Q ( N w.9.6 @ I x @ j %.: T w 2.Z M.< > 5 x.-X",
"3X;.b < < 7 _ 4.H.G j C w.H.&.8.u.T y < j M @ . : 7 6 j m w k 6.u > | 8 @ < V.:X",
"4Xy.7 < < < W :.7 u $.l.u.u > < < < 9 9 < < , 5 z j x $ q p 0 [ 5 < <.$ @ 5 V.:X",
"5X;.< > < u _ p U ;.y.u.0 9 v J v j u u v x u , : & * u > x > O.y j $ T > < C.;X",
"9X9.< < I R b o.w u f.$.v p 7 y x 0 0 y < < 0 N b @ + 5 8 j 5 v v 8 7 9 5 8 C.:X",
"qX9.< 0 0 8 V 4 0 $.T y y y y p K b x x x x < < _ E 5 z k < 7 7 j 7 8 j : 8 Z.:X",
"qX9.x b < K 7 > 0 > w y c V b 5 5 5 5 7 6 b X.u < C N 6 5 p p 9 0 5 y v 6 x Z.:X",
"0X;.0 u c 5 : > < y v %.' x u K R E _ C b 0 7 b u < V u & $ 2.~ u 7 y x k N Z.*X",
"qX;.X.m > > : 7 y P X.p v ] V 8 6 Y @.P b T Y 7 y u < R , + ) 5.b 0 5 j c , V.%X",
"0X9.: > > : > 7 K / p K X.K u 0 9 y y g Y u p E v y y 4 u @ 8 n x x < j p 5 x.%X",
"9X;.: > : > 7 J T u b v p y @ 4 $ & + + & 4 i y E p y 4 > : @ 1 7 b < V g < V.%X",
"9X;.> > > 8 p b 7 x y p , g T 9 = + & + . % = f y / y u : > & o < 8 4 X.J 7 V.$X",
"9X9.> < 8 7 b 5 8 < y < I d : , , t q # * o % * e p / w 4 : & . , 5 0 3.J 7 x.@X",
"9X;.> 7 8 b x 7 5 5 : 9 # , = - q e # # $ * & o = w P t u : @ + = y j g.! < m.%X",
"9X;.< x u Y y 7 5 : > 2 , $ e i q q . .     # . . = w J 4 < : : > p x &.-.< Z.:X",
"9X-.v v L v 7 5 : : 5 4 = f g - .             - . % @ p $ y < 8 5 4 b c 3.< Z.,X",
"9X;.*.( v 7 7 5 : % 4 = p L # .                 * % * t , 9 u j > @ b 7 1.9 Y.1X",
"9X;.j.( 8 5 9 : + . $ u L # *                     o + 3 4 4 K K . : x y *.y P.,X",
"9Xk.z.v 5 5 y @ % @ , E q * X                       . , 4 , E X.. 5 8 9 $.J P.1X",
"0Xn.` u 5 u < : 8 $ v P * $                         . $ , % R ' = y 9 7 +.R C.1X",
"0Xa.u y 5 p : 5 v , R q * *                         . # = % K ' x u t 5 / T Z.1X",
"9X;.y 7 8 b : 3 g p i # X .                         . o # % J _ F 0 y 5 T Y Z.3X",
"8X;.7 j u Y @ + , J e * o X                         . . * % J V C 2 M 7 b T Y.4X",
"6X;.u N b v + , , y , * o .                           + # % p x 0 @ V p v ] Q.qX",
"6X;.V D Y y 3 9 p y = # * #                           $ = + w 8 u @ x u T ` R.wX",
"6X;.8._ E < R Y J t # o o e                         . q # # 4 x x : u > $.V R.7X",
"3X9.G.' E 5 o.b Y t = o * d                         . e + + , V Y > y > $.V P.,X",
"3Xy.F.$.T 5 C x o.t r * * h                         X q . @ p y Y 5 y u $.u l.&X",
"2Xy.7.p.Y 5 9 4 &.w ; + % g                         $ # + + ^ i z 8 7 E b 7 s.XX",
"2Xr.` b.T 7 @ : &.w $ % = w                       . , . + q o.4 8 7 > ' 7 7 k. X",
"2X8.T F.E 7 $ : +.w , # , , .                     q . . @ i ' 3 4 > > E 6 < l.OX",
"2Xi.N N.' 7 4 , / y 4 q # $ . .                 q # . + = R C 3 u > x b 5 < l.$X",
"3Xl.:.N.' 7 x < J v y q + - + .                 * . + @ f y ;.T u < x C : 7 M.=X",
"3Xa.d.c.] y x 7 i y 7 p = , 4   .             . . + + $ b P l.v y 7 V b : B M.=X",
"3X;.<.f.*.u u 9 < 4 : v w + 9 w . + .     . . . # # , Y a D n u 7 7 T : > H Z.>X",
"3X-.m i.g.x y , : u @ 5 K @ $ +.= % + # # $ # $ + @ ,.T 1 > 0 0 7 0 p : B M P.1X",
"3X-.x q.t.b u , > y , : P w + y N & 2 % . . & % . . 3 @ + 5 7 0 > j : 7 | 8 A.6X",
"3X-.j  .7.x 7 4 < w w : < R @ @ , 2 : & . . & 5 @ + 2 : > 7 x > 7 < : <.j < C.4X",
"3X;.j ;.=.j > c x > p : : u x @ , , + & : : : @ @ 5 : 4 0 b > 7 y : ! ` : < Z.6X",
"3X%.y 3.*.b 5 k b 4 0 5 : < u 7 @ , v , > 2 @ + + e u V x > 5 7 : p ;.< > k I.7X",
"2X#.I 1.r.P > 8 x 9 < c : : < 5 5 , , J 2._ b b E V V 5 : 5 5 > p *.7 : j ..P.4X",
"2X0.r.S 0.~ > 7 V , > u v < < < < 7 < , < x x x 0 > : 5 7 y > u z.u : 8 A < C.,X",
"4X-.+ l 6.$.< j _ y 7 < b u < < 9 9 7 7 y , : , y y y j u : p o.t.0 8.` 5 x P.=X",
"9X9.y.C u. .5 x -.V k -.} ` u < < < 7 y 7 7 y y 7 0 V p < 8 5 b ] k.J.%.8 M.!.%X",
"9Xl.0 @ l.7.7 , Y j 5 u N ] *.u < < < < < y b Y 0 x 5 5 > : u l.H.H.7.< M e.Y.*X",
"0X0.j 5 ;.S.> > J 7 8 . , : E t.W < < < , 7 E b 0 < < : : 7 f.F.b.T.2.w.6.}.V.*X",
"0X;.< < c S > > ^ b j $ 6 w @ v j.:.0 < < < < < < : , 4 o.c.m.c.a.q.I 6 z ..Z.=X",
"0X;.: < < > > > S C B , 7 m 7 : , P V x 9 s n n c &.S.L.K.*.u z.u 5 j > . 3 x.>X",
"qX9.> > < > : 8 u D B @ b : 0 < 5 5 5 v x > : < 0 u j 2.y @ 5 Q k 5 . + > k V.>X",
"9X;.7 7 < 5 : + I v h.@ 0 8 5 2.5 , < < j T 0 7 8 K x < > > > _ , @ c b.G $ C.1X",
"9X9.5 : : 8 j j C , j + 8 u p 7 c 9 5 < < < Q $.$.8 5 5 > > < 0 8 7 V < i.M I.6X",
"9X9.7 7 : @ : 8 x 9 5 o 5 % c V M z...k j 7 > | Y @ + @ : > u , : Y j 5 0 F Q.6X",
"qXx.I K _ _ Y I $.} K K _ Y _ 9.%.W ~ ` { / O.h.=.` _ Q K K &._ ] %.Y ` _ [ [.wX",
"rX&X X X`./.W./.'. X X X.X.X X'.'. X'.|. X'. X#X%X+X X'.'.).(.(./.]. X#X%X=X3XeX"
};
