/* XPM */
static char *_89e404fda3b469dd8b47c2baafa224eE99SylP01k3MQyMN[] = {
/* columns rows colors chars-per-pixel */
"64 64 203 2 ",
"   c #210800",
".  c #2B0D02",
"X  c #300F03",
"o  c #341104",
"O  c #3C1405",
"+  c #3F1804",
"@  c #411606",
"#  c #451906",
"$  c #4B1B06",
"%  c #451808",
"&  c #4B1B09",
"*  c #431708",
"=  c #521E07",
"-  c #531E0A",
";  c #552107",
":  c #55210A",
">  c #5C230B",
",  c #5A2807",
"<  c #64250C",
"1  c #68270D",
"2  c #65290B",
"3  c #6C2A0D",
"4  c #732D0D",
"5  c #7A2F0E",
"6  c #6D320A",
"7  c #73320C",
"8  c #7C320E",
"9  c #7C390D",
"0  c #6C2910",
"q  c #732D10",
"w  c #792F10",
"e  c #773010",
"r  c #7C3210",
"t  c #83340E",
"y  c #8A370E",
"u  c #833A0D",
"i  c #8C3B0F",
"p  c #913D0F",
"a  c #843410",
"s  c #8B3610",
"d  c #853812",
"f  c #8D3A11",
"g  c #933B10",
"h  c #993F11",
"j  c #8D460F",
"k  c #93440F",
"l  c #8D4111",
"z  c #944212",
"x  c #9D4211",
"c  c #944A11",
"v  c #9E4A12",
"b  c #A34512",
"n  c #A44A13",
"m  c #AA4B13",
"M  c #B14E13",
"N  c #AC5214",
"B  c #AD5B15",
"V  c #AA5718",
"C  c #B45214",
"Z  c #BB5515",
"A  c #B55C15",
"S  c #BC5915",
"D  c #B55C1A",
"F  c #AD611D",
"G  c #B76116",
"H  c #BC6416",
"J  c #B7651A",
"K  c #BE7219",
"L  c #9E512E",
"P  c #AC5A2F",
"I  c #B36A24",
"U  c #B6782C",
"Y  c #BE6631",
"T  c #B76632",
"R  c #C45B16",
"E  c #CA5F16",
"W  c #CA5F16",
"Q  c #C56216",
"!  c #CD6116",
"~  c #CD6217",
"^  c #C26A17",
"/  c #CD6A17",
"(  c #C76818",
")  c #CC6A18",
"_  c #CC6718",
"`  c #D36517",
"'  c #D26917",
"]  c #D66718",
"[  c #D46B18",
"{  c #D86818",
"}  c #D86818",
"|  c #C57119",
" . c #CB7419",
".. c #C7771A",
"X. c #D5741A",
"o. c #DC7419",
"O. c #D37B19",
"+. c #DB7A1A",
"@. c #E17B1A",
"#. c #E07719",
"$. c #C87824",
"%. c #C66E33",
"&. c #DD7B35",
"*. c #D97D22",
"=. c #DC831C",
"-. c #DF8D1D",
";. c #D5861B",
":. c #E5841B",
">. c #E58A1C",
",. c #E98C1C",
"<. c #E8871C",
"1. c #E4911D",
"2. c #EE941D",
"3. c #EF9A1E",
"4. c #F0971E",
"5. c #F29C1E",
"6. c #F5A31F",
"7. c #DC8922",
"8. c #DE8A2B",
"9. c #DF9120",
"0. c #D7963B",
"q. c #D79034",
"w. c #D59038",
"e. c #E18221",
"r. c #E78D22",
"t. c #E28D2B",
"y. c #E88F23",
"u. c #E59224",
"i. c #E89123",
"p. c #EB9A24",
"a. c #E4932A",
"s. c #E49B2D",
"d. c #EC9D2A",
"f. c #F09A20",
"g. c #E29231",
"h. c #E49E39",
"j. c #EC9C39",
"k. c #E69A34",
"l. c #ECA32D",
"z. c #F5A522",
"x. c #F6AA25",
"c. c #F8A921",
"v. c #F2AA2D",
"b. c #F6B32D",
"n. c #F8B32B",
"m. c #E6A235",
"M. c #EBA332",
"N. c #EFAB32",
"B. c #EAA43A",
"V. c #E6A83F",
"C. c #F1A936",
"Z. c #E4B23E",
"A. c #EDB43B",
"S. c #EDBB3D",
"D. c #F4B733",
"F. c #F7BA34",
"G. c #F8BD35",
"H. c #F1B639",
"J. c #F3BB3B",
"K. c #F9B33C",
"L. c #F8C43C",
"P. c #DBB548",
"I. c #E7AD42",
"U. c #F1AB40",
"Y. c #EAB343",
"T. c #E9BA46",
"R. c #F9BF48",
"E. c #F0BF44",
"W. c #D8BB62",
"Q. c #DCC255",
"!. c #EEC34C",
"~. c #EAC74F",
"^. c #F3C343",
"/. c #F6CA45",
"(. c #F8CC44",
"). c #F2CB4B",
"_. c #F5C349",
"`. c #F5D14D",
"'. c #F8D34B",
"]. c #EDCA53",
"[. c #EFC159",
"{. c #F6CB57",
"}. c #ECD457",
"|. c #EFDA5E",
" X c #F3D354",
".X c #F6DA55",
"XX c #F8DC54",
"oX c #F3DB5B",
"OX c #F7D35B",
"+X c #F6E25C",
"@X c #F8E35B",
"#X c #E0C264",
"$X c #F3D466",
"%X c #F7DD63",
"&X c #F4E463",
"*X c #F8EC64",
"=X c #F9E069",
"-X c #F7F56E",
";X c #F8F46C",
":X c #F9E972",
">X c #F8F870",
",X c #F9F27B",
"<X c #F9F982",
/* pixels */
"        .     .                               o O O .                         = r a f n # 3   o . O 3 4 * @ $ * & o   . O ; ; 3 ",
"X X   O : . O & o         o o . * .   X # , 2 5 a 4 o     * O # # O         o > i Z ` C 3 x > p 7 f M C 7 Z ] s O 4 & & u ` m # ",
"& % * : a > 3 - 1 O . * . 1 4 1 5 # $ 3 f ! S = % X   $ 9 b s M M f :             = u m C u , S k n ! C C C n ; . : w : 1 x : 1 ",
"3 1 3 a a - O * 1 * < w O 4 s w 3 < b x > p >       = m ` E h Z { R h -               $ 7 9 1 2 : 8 s w w w & . * . O o 1 - . 8 ",
"a w a r s 1 . . < 4 s w > 1 $ 1 h S ! E t *       $ m ! n y O @ 8 R b 8 .                 O O . < s s s s n N t 8 & o 9 Z C N S ",
"s s s s g s 1 : > # 1 1 # O > h ! o.H g #       O 8 b h # X     . 8 Q O.4               . # 8 m R E E E E ` ] ! R n < b { { { { ",
"f f g g g s 3 * < > O @ 1 s x E E C : .         # M ` y .         4 >.2.9             O 4 b ! ` { { { { ` E ` ` x s r C { { { { ",
"f g x g g r q 1 q x x Z ` ` ` Z y ;             $ C E >         . m 4.-.3           # h b Z { E ` ` E ` m g R ` g q h E { { { ` ",
"f h C m x g s 0 a ! Z Z Z C n 3 =               # M Z b =   . ; c X.>.N .       o # p ` { ! Z x E E g n x m E ` a < > n { { { ` ",
"g M Z E b g 8 - 4 4 1 w s a 1 & % o             . 9 ! ` C 9 4 _ <.<.S >       * f M Z ` ! b g m ! v < = n { ] M : 1 # M { { { ` ",
"g b n b g g 4 > 5 4 n C Z Z C C C m t O           o y =.2.+.b :. .7 #       O x ` { ` m b b Z ` m - 1 O m { C r : > O f R { ` z ",
"f f f b m g a w Z E { { ` ] ` ` ` { ! p 4 o         X , c v g 9 $ .     o u S ` { ] E h b ! { m 4 < 8 - 2 R f # < 5 4 w h E b # ",
"g g g b M g s r R ! ! ! m Z f a n { { ` E p 3 . .       X o o .   . o 5 z X.5.5.o.! M ! ! { { m # < a 5 4 M S 1 o O 4 r a R ! C ",
"Z m C g g g s q f g b f q q g h z ! { { o.' b g g 2 @ O o O @ @ 3 z v / +.2.2.1.[ b _ >.{ { { R $ O > w a w f 4 o   : x s R ` Z ",
"! E g f h b g 1 f ` ] M 1 1 C ` E M R ` <.5.@.+.o.[ [ m b m ` [ o.<.2.2.>.! Z x b h Z E { { { g r > X 3 b b b x < o f ] ] ] ` t ",
"{ ` m b M { b & > Z R M # : a Z ] R m C ` <.,.,.<.2.,.:.:.+.Q 2.4.o.{ { ! Z R R { C m C { { { Z R 4   , { { { ! 1 O z { { { ` b ",
"C ` { ! R { g 1 - 8 m m : 3 - a ] { { R ` ` C M Q :.:.:.:.+.S ^ / { { :.{ { { #.<.<.:.{ o.#.{ { ` y . 7 { { { ! 8 : m { { Z ` E ",
"R ! m C { Z e 0 > > C a & < o e ] { { { C ! R R E { { { { { R b ! :.o.o.m b b N X.+.A A 4.5.#.{ ` C 4 x { { { ` g q m { { R ` E ",
"! h $ z ` b q > O 1 g 0 > O : s M { @.S Z C =.` ` C R ` C :.` X.2.@.z r q w s s a a w v :.6.@.` ] ! g b { { { ` g q m { { ` ] E ",
"b t # h f w 3 o X r h g w o 1 R ` o.R Z b C v a h a w g R [ { [ o.m q 0 q a w f h g g m :.,.N h E R g b { { ` E s 1 v E E b ! R ",
"E f r C x x h o + E ` ` g * t ` :.5.X.x s r s a q 0 0 q R { { [ o.C l a a a b [ ' R ` [ 2. .a s C h g m S C i 8 : o > < 3 q R S ",
"` a < b ] ] ` ; ; ` { { m q g [ 2.:.M r w s h w a w a f ! ` E X.;.+.3._ q q f +.' h C o.o.C s f q r m N O     .         & > S S ",
"! 8 & x { { ` r d ` { { v r m ! C Z R m m H X.x 0 0 x Z ` Z Z R g B K Q r n s v x r v ,.2.n w s r h ` v   o . O . O o   O # S R ",
"` m r R { { i 3 h ` { { f a m m a a R { m H X.z r q x s b b { { R f a v r R =.....S m B 2.M r s M Z ` v   o .     % -   O % S ` ",
"` b d { [ { N e f M { { f q s s w s ^ o.a w x h R v w a S =.2.2.#.E a q q n #.#.4.2.S v o.Z m R ! M ` v o o         .   . . C { ",
"! h r M ` ` n 1 # 4 h h r m Z r 0 q J @.d f _ >. .a a Z C o.#.#.o.,.( r q b ` { o.X.m b { C Z { ! x m C 1 # . : > < 4 3 8 n ` { ",
"h C s m C 8 O .   . X o > S ! d g s C { f ;.,.Q f s Z >.1.2.4.4.4.5.4._ g r m ` ` m C x ` n m ` b h ! ` R R S R Z x ! E ! ` { { ",
"0 s w m n O   .     . O < S ] ` R 5 v { b =._ a x ` o.#.#.#.:.2.2.<.5.2.) f w m m Z g 4 n s t n f 3 N R ! { ] E Z b R R R R E ` ",
"w a w S N O   %   . * . : S R R R 1 u { b Z N g Z { :.2.4.6.c.c.c.c.6.:.,.( r 4 n f 1   o 1 *   - . . > u n n 8 4 4 4 - 1 > s R ",
"m b g o.A =         . - q S h s m 4 9 ! b a n :.:.:.:.:.<.6.c.5.,.5.2.5.,.2.R 8 & %     . % .   O                 * O       4 R ",
"{ +.b { C a 1 < 2 i z m C ! h 0 3 < x M a n [ :.:.:.:.5.,.5.,.5.,.6.2.6.c.6.@.R 8 .       . .                     o         < b ",
"<.X.b +.H M R R R ] ] { { x # O - . 2 r N >.2.2.2.2.2.6.5.6.5.c.c.c.c.6.@.#.o.{ E 8 .                                       > s ",
"o.E b { ' ! m a r r r s 2 O . . o # t m >.6.6.6.c.c.c.c.c.c.c.c.c.c.c.3.2.2.2.2.o.R 4 . . . . . . . . .                     O m ",
"` x x Z M m 3 > . . . o 4 l z z z z n _ #.#.X.G c.c.c.c.6.6.6.6.c.c.3.N m m m m n b h i i i i i i i i f <                   : f ",
"[ g r b h 3 o       O 4 S :.2.2.2.3.3.3.2.6.=.N 4.4.4.4.2.#.,.@.4.4.) b X.X.o.X.o.o.o.o.o.o.[ ` [ [ +.:.Z > O               & < ",
"R f d { n &     . 2 N @.@.@.@.@.:.2.2.@.#.2.S x R R R R R R R R R R x m ,.2.5.c.c.4.6.3.6.2.:.@.,.:.,.o.{ Z g $               . ",
"Z f d { n - . * u [ <.4.2.5.2.6.6.2.c.2.5.:.h g g g g m H C n g g g h +.:.@.o.4.c.2.5.,.5.:.4.c.2.5.2.5.:.:.S m ;         o     ",
":.g d { i . = n >.2.5.4.2.6.2.<.6.4.c.c.6.[ h g b ( 0.T.).=.M Z Z Z x +.5.#.{ o.:.6.6.,.5.2.2.5.6.:.:.:.:.:.[ ` M ;       o %   ",
"X.g w z : 7 S ] :.5.<.2.4.6.:.2.4.<.c.c.6.N x _ | N $.N.8.N h ^ A.8.n >.6.2.2.2.2.6.6.4.6.5.5.6.6.4.2.2.2.2.2.2.,.C :       . . ",
"m f 3 O 9 +.4.2.5.6.5.5.6.c.5.5.:.6.c.c.3.v n l.}.0.D V V / 1.=.u.+.n p.c.c.p.e.e.e.z.e.#.#.#.4.<.6.5.#.#.#.#.#.#.[ C :       X ",
"C 8 = n [ o.4.<.5.:.2.,.6.c.c.6.6.6.6.6.o.x h m $.Y.Q.Q.P.u.>.Q m n n T.z.v. X].].]. X!.2.2.2.4.5.5.6.6.6.6.5.5.6.6.5.| , .     ",
"t 2 N :.6.6.b.x.F.b.6.p.N.F.F.F.F.N.M.i.[ x m ! M h z n n b n :.>.! X.t.e.t.g.g.g.e.@.e.t.t.t.e.v.r.b.c.c.c.c.c.c.c.c.6.:.6 .   ",
"6 O.6.c.c.c.(.b.'.(.6.H.XXXX.X].].].].l._ x Z Z N I U q.g.' A [ 5.B =.T.l.].].].].d.2.d.]. XXXb.(.b.E.6.2.2.2.2.2.2.2.2.2.o.>   ",
"O.5.2.c.c.L.n.L.n.(.^.N.L.(./.Y.I.I.s.<.n g C  .<.k.Y.Y.T.H G I s.N X.m.u.m.s.I.I.u.m.>.<.l.(.(.(./.Y.H.<.<.<.<.<.<.<.#.#.:.N o ",
"6.6.2.c.c.F.n.G.n.L.L.b.F.L.L.J.h.h.t.:.n ..!.^.) R [ C A Z Q Z.V.R +.g.i.G.b.L.L.n.G.z.:.t.h.J.B.h.h.M.2.:.:.:.:.:.:.o.o.@.C i ",
"c.c.c.c.L.@X@X@X@X@X@X@XG.'.XXx.4.4.4.#.b N U J.Z.1.p.1.-.l.^.n.r.{ T.).v.@X@X@X@X@X@X`.v.J.4.).v.4.4.5.6.2.2.o.<.{ { { { M h x ",
"c.c.x.x.n.F.G.F.G.b.F.G.b.F.G.c.6.D.J.+.x x R D 7.S.}.}.oX.X/.@Xk.i.@XL.b.(.XXG.G.G.G.F.L.'.c.n.'.x.c.c.c.<.[ ` [ ` ` ` ` ! E E ",
"n.n.XX(.L.G.'.F.'.c.G.@X*X*XXXz.#.e.e.C x [ 2._ N B F F *.k.+XF.| P.;X@X*X@X*X@X@X@X@X@X@X'.x.n.n.c.n.x.b.r.9 y t t t t m R R R ",
"G.G.F.n.G.G.n.b.n.F.G.G.@X-XF.b.c.F.H.N R 4.c.6.x.D.D.D.D.b.@X/. .s.@X(.@XL.'.'.G.G.G.G.G.'.'.@XL.L.@XL.@XF.+.N > * * o # > > > ",
"XX;X'.'.*X*X'.'./.@X>X*X*X@X/.'.L.F.<.m E <.2.c.G.XXXX].P.x.L.F.4..X@X*X@X>X>X@XXXXXXXXX@X*XXXXXXXXXXX/.6.6.c.6.+.G G j = # O   ",
"(.*XXX*X'.*X-X'.'.XX>X@X*XG.@XXX-XXX<.m O.B.>.| =.2.5.>.m s.-X'.2. XXX*XXX>X>X@X'.'.'.'.XX@X'.'.'.'.'.'.'.F.L.n.L.n.'.N.O.^ v 1 ",
";X>X>X*X*X'.*X-XXXL.L.L.@X@X*X/.L.v.Q h 9.@X). .X.H.b.:.7.].-X!.2.@X(.L.L.'.>X>X'.*X>X>X*XL.L.L./.;X*X'.@Xn.G.n.G.n.L.b.c.c.,.S ",
"G./.-X>X>X*X;X-X;X@X(./.*X-X;X@X@XY.M C p.L.*XoX^.b.XXoX.X(.-X`.^.;X@X@X@X@X-X-X@X;X-X-X;X@X@X@X@X-X;X*X*X@X@X@X@X@X@X@XG.c.6.,.",
"*X@X-X>X>X>X-X*X(.@X(.;X'.G.G.G.G.p.M O..X*X*X(.;X*X;X-X(.*X-X'.(.(.G.G.G.G.G.G.G.G.L.-X>X>X>X;X-X*X(.@XXX'.G.G.G.G.G.G.b.n.n.5.",
"*X/.oX*X>X>X-X(.*X@X@X;X*X@X@X@X'.2.Z =.@X>X-X;X>X>X>X-X@X-X>X`.c.XX@X@X*X@X@X@X@X@X@X*X>X>X>X(.*X-X@X@X@X@X@X@X@X@X@X@X@X@XXXz.",
"*X&Xm.'.>X>X>X-X*XL.G.XX'.G.G.G.F.>.' 3.@X>X>X>X>X>X>X-X(.@X-X!.l.@X(.L.@XG.G.G.G.G.G./.>X>X>X-X-X*XL.G.G.n.c.F.G.F.n.b.c.F.x.5.",
"*XXX@X*X*X@XXX*X@X-X*XXX*X@X*XXX^.) | G.*X.X]..X X%X>X@X'.'.-X'.'.@XXXXXXXXX@X>X-X@XXX*XXX@X>X-X@X-X>X>X>XXXL.*X>X*X'.'.F.'.n.5.",
"*X'.XX*X@X@X'.*XXX-X*X'.*XXX*X'.A.Z | XX;Xa.Q n.H.!.>XG.'.-X&XN.'.XX'.'.'.'.@X>X>XXX'.*X'.@X>XXX'.*XXX>X>XXX(.(.(.(.(.F.L.n.c.5.",
">X>X>X>X>X>X>X>X>X>X>XXX@X>X>X*Xm.x | XX-X].7.y.D.'.>X@X-X>XoX4.'.'.*X;XL.L.L.L.L.L.L.L.L.L.@X@X;X-X@X>X>X*XXXXXXXXXXXXXXXb.c.5.",
">X>X>X>X>X>X>X>X>X>X>X'.D.L.@XD.) g ..XX>X-X+XoX@X*X>X>X>X>X XB.*X@X*X/.@X@X@X@X@XG.XX@X@X@X;X>X>X>X>X>X>X>X>X>X*X(.-X-X'.'.n.4.",
">X>X>X-X;X;X-X*X*X*X;X;X@XoXoXz.O.B A.&X-X>X>X>X>X>X>X>X>X>X@X/.XXG.G.G.@XG.G.G.@X*X(.-X>X>X>X>X>X>X>X>X>X>X>X>X*XF.G.G.n.n.c.[ ",
">X>X>X@XXX'.@X/.G.F.J.oXA.X.X.[ R n ) 7.~.oX&X-X>X>X>X>X>X>X;X*X-X;X;X;X-X;X;X;X-X-X;X-X>X>X>X>X>X>X>X>X>X>X>X>X-X;X;X;XJ.6.6._ ",
">X>X>X-X-X-X-X@X XT.O.R b b [ ` Z b b b h R a.-X>X>X>X>X>X>X@X/.>X>X>X>X>X>X>X>X>X@X@X-X>X>X>X*X;X*X;X*X*X@X;X*X;X@X@X@XM.5.6._ ",
"<X<X<X,X$X#XW.0.%.Y L P T 8.k.%.Y &.&.&.P T {.<X<X<X<X<X<X,X%X%X<X<X<X,X:X,X:X:X,X_.U.$X$X=X=XR.OXR.OX_.{.K.OXR.[.B.j.C.K.C.j.%."
};
