/* XPM */
static char *e1302dc8c1944169eaed7d63679176aaZNH1EzW7tQWYeJRC[] = {
/* columns rows colors chars-per-pixel */
"64 64 239 2 ",
"   c #1B283B",
".  c #1C2639",
"X  c #23212F",
"o  c #2B232D",
"O  c #2F282F",
"+  c #3D2827",
"@  c #34262A",
"#  c #392728",
"$  c #34292E",
"%  c #3C2A2A",
"&  c #202030",
"*  c #24263A",
"=  c #26293D",
"-  c #262B3C",
";  c #312B32",
":  c #3C3131",
">  c #432A26",
",  c #4B2D24",
"<  c #442E2A",
"1  c #532E21",
"2  c #44312C",
"3  c #4B332B",
"4  c #4D3329",
"5  c #543123",
"6  c #593120",
"7  c #553A2B",
"8  c #5B3C2A",
"9  c #563729",
"0  c #473934",
"q  c #513931",
"w  c #623621",
"e  c #643A23",
"r  c #6B3E23",
"t  c #643F28",
"y  c #5D402D",
"u  c #584939",
"i  c #4A4138",
"p  c #6A442B",
"a  c #6A442A",
"s  c #744424",
"d  c #794624",
"f  c #7C4925",
"g  c #734B2C",
"h  c #7C4D2A",
"j  c #724728",
"k  c #7C522D",
"l  c #694A34",
"z  c #795638",
"x  c #734F34",
"c  c #13354F",
"v  c #1A374D",
"b  c #183854",
"n  c #262B41",
"m  c #292E44",
"M  c #2C324B",
"N  c #293546",
"B  c #34394B",
"V  c #2F3651",
"C  c #2B3C58",
"Z  c #323A55",
"A  c #333D5B",
"S  c #383F54",
"D  c #3B435B",
"F  c #3A4358",
"G  c #3B4347",
"H  c #0C4161",
"J  c #07486A",
"K  c #124C6D",
"L  c #024E73",
"P  c #084E72",
"I  c #035375",
"U  c #01537D",
"Y  c #09557D",
"T  c #0D5477",
"R  c #19547B",
"E  c #144D71",
"W  c #3D4A6C",
"Q  c #3A4564",
"!  c #3D4C71",
"~  c #364C73",
"^  c #245678",
"/  c #3E557A",
"(  c #24496D",
")  c #2A6278",
"_  c #434A59",
"`  c #4B525A",
"'  c #504C4C",
"]  c #695748",
"[  c #6E564D",
"{  c #7A644B",
"}  c #414D6B",
"|  c #434D63",
" . c #4A5468",
".. c #535D6E",
"X. c #445374",
"o. c #4B5B7C",
"O. c #485776",
"+. c #525F73",
"@. c #404E72",
"#. c #58657A",
"$. c #556674",
"%. c #687078",
"&. c #834C25",
"*. c #854F27",
"=. c #8B5226",
"-. c #83532B",
";. c #8B562A",
":. c #8D5B2D",
">. c #86542A",
",. c #925626",
"<. c #955827",
"1. c #925B2A",
"2. c #9B5D27",
"3. c #875B33",
"4. c #9A632E",
"5. c #8A6338",
"6. c #976935",
"7. c #9A733C",
"8. c #A0622A",
"9. c #A76C2F",
"0. c #A36C32",
"q. c #AB7334",
"w. c #AC7B3B",
"e. c #A7773A",
"r. c #B17E3B",
"t. c #825C46",
"y. c #876644",
"u. c #976C44",
"i. c #997944",
"p. c #856957",
"a. c #96775A",
"s. c #8C704F",
"d. c #A87B46",
"f. c #A57750",
"g. c #8F7769",
"h. c #7C8562",
"j. c #B4833E",
"k. c #B9863E",
"l. c #BB883F",
"z. c #968355",
"x. c #AB8444",
"c. c #AA8748",
"v. c #B48641",
"b. c #BC8D43",
"n. c #B48847",
"m. c #BB944B",
"M. c #A78A55",
"N. c #B99656",
"B. c #B28C56",
"V. c #9A816E",
"C. c #B99A66",
"Z. c #B79B7A",
"A. c #AA8E6F",
"S. c #BDA572",
"D. c #BEA054",
"F. c #C29447",
"G. c #C59B4B",
"H. c #C6994A",
"J. c #C49E53",
"K. c #C08F46",
"L. c #CBA14E",
"P. c #C6A252",
"I. c #CDA551",
"U. c #CDAA55",
"Y. c #CBAA5A",
"T. c #D1AC54",
"R. c #D1AD5B",
"E. c #D5B057",
"W. c #D6B359",
"Q. c #D9B65A",
"!. c #DCBB5D",
"~. c #C29B6E",
"^. c #DBBC69",
"/. c #CBAC6F",
"(. c #E0BF60",
"). c #DFC16F",
"_. c #E0C060",
"`. c #E2C46D",
"'. c #E3C878",
"]. c #0D5A81",
"[. c #135E83",
"{. c #225D81",
"}. c #136185",
"|. c #286586",
" X c #346082",
".X c #4F5F80",
"XX c #4B6784",
"oX c #546482",
"OX c #5B6B85",
"+X c #566D87",
"@X c #5D758A",
"#X c #64738A",
"$X c #6B7B8D",
"%X c #657587",
"&X c #757D84",
"*X c #6B7E90",
"=X c #616F82",
"-X c #78888D",
";X c #748492",
":X c #7B8B96",
">X c #7C8D97",
",X c #698C98",
"<X c #65909C",
"1X c #83939B",
"2X c #89989A",
"3X c #908F91",
"4X c #AB998F",
"5X c #BAA798",
"6X c #BBA68A",
"7X c #8E9EA0",
"8X c #879FA3",
"9X c #909FA0",
"0X c #94A3A4",
"qX c #9DADA9",
"wX c #96A9A6",
"eX c #8BA3A4",
"rX c #A3B3AC",
"tX c #A8B8AF",
"yX c #A9BBB1",
"uX c #ADA7A7",
"iX c #95A29B",
"pX c #C5A986",
"aX c #D7BC87",
"sX c #C9B49A",
"dX c #CEB697",
"fX c #C9BAAE",
"gX c #B4C4B5",
"hX c #DCC389",
"jX c #DBC596",
"kX c #E6CE86",
"lX c #E6D08B",
"zX c #D9C8AB",
"xX c #D9CAB8",
"cX c #CFC8B3",
"vX c #E5D6AF",
"bX c #EDE5BB",
"nX c #D2CAC3",
"mX c #E4D8C7",
"MX c #F1EACB",
/* pixels */
"U U I I I I I I I I I I I I I I I I I I I I I I I I I I I I I I I I I I I I I I I U U U I I I I I I I I I I I I I I I I I I I U ",
"U H                                                                                                                         b U ",
"U H & & & & & & & & & & & & & & & & & & & & & & & & & & & & & X X X o o X X o & X & & X o o o X & & & & & & & & & & & & & & c U ",
"U H & & & & & & & & & & & & & & & & & & & & & & & & & & & & & o > o a :.9 ' t.% > X X + 6 t p q O X & & & & & & & & & & & & c ].",
"U H & & & & & & & & & & & & & & & & & & & & & & & & . . & & & 8 # : D.J.g.nX5X;.g 7 @ 1 s w.m.J.5.% X & & & & & & & & & & & c U ",
"U H & & & & & & & & & & & & & & & & & & & & & & & & & & & & O C.x : m.N.mXM.l j.J.i.7 + 1 e a h n.5.% X & & & & & & & & & X c U ",
"U H & & & & & & & & & & & & & & & & & & & & & & & & o X o 0 q cXf.3 5.hXcXl r.m.p u y.@ @ a *.8 l x.k # X & & & & & & & & & c U ",
"U H & & & & & & & & & & & & & & & & & & & & & & X o , + l /.' 4Xn.s ] nXz.u P.g u 5 o & & & # s 3 > f w @ X & & & & & & & & c U ",
"U H & & & & & & & & & & & & & & & & & & & & X @ > 6 6 e /.zX' 2 n.e.' nXi 5.x.0 M.s.< $ & & & # 1 + > 1 1 o & & & & & & & & c U ",
"U H & & & & & & & & & & & & & & & & & & X @ > 6 6 6 6 6.pXy.$ X h x.] sX3.i.1.u ' 2X[ 7 @ o & & # > o + > X & & & & & & . . c U ",
"U H & & & & & & & & & & & & & & & & X @ > 6 6 6 6 6 6 Z.i.$ @ # > j 8 d.a $ x d.x %.0X# 6 > @ @ @ X & & & & & & & & & & & . c U ",
"U H & & & & & & & & & & & & & & & X > 6 6 6 6 6 6 6 6 fXa.$ e , o @ $ e o # # l M.' 3X[ , 6 6 6 6 > # # # # @ X & & & & & & c U ",
"U K D D n & & & & & & & & & & X # > 1 6 6 6 6 6 6 6 > Z.dX' h % & X + 6 t 6 , u M.o g.9X+ 6 6 6 6 6 6 6 6 6 1 + + + + @ & & c U ",
"U {.OXo.Q n & & & & & & & X + > 1 6 6 6 6 6 6 r r > + 6.mX[ r , o + 6 d d &.j l M.i a.[ o # , s e s w s w s 6 6 6 w f f p 8 N U ",
"U |.$X.XQ * & & & & & X + > 1 6 6 6 6 w s r &.a < 7 e r /.u.3 j 5 f =.2.=.<.s 6.B.p.4X+ > > # 2 + e &.d f d f w d w s s &.<.' U ",
"U R .XQ * & & & & & X + 1 6 6 d e f e &.s f 8 2 8 ;.,.4 B.jXA.l h 8.b.q.b.>.u G.j.N.{ 3 *.=.h i.M.q >.=.s &.2.&.s f e d r 8.] U ",
"U K m * & X . . & + , 6 f e &.s &.s ,.=.5 3 e -.<.8.8.>.k p.z k 4.F.k.G.q.k N.!.^.5X$ 8 8.8.pX~.z g b.q.n.q.F.q.x.d &.s 4.I.h.U ",
"U H & & & & & + j w 6 &.2.,.2.,.2.,.>.% 3 >.<.j.j.b.r.b.0.,.n.q.H.k.G.k.F.:.3.b.R.{ 3 1.k.aXpXl j m.k.G.k.G.k.G.q.=.s 6.G.6.' U ",
"U H & & X + a >.7 % h 8.F.q.F.q.F.1.3 l N.I.T.F.F.K.F.l.G.T.k.G.k.I.!.E.!.U.n.t i y w.aXjXM.x h m.!.E.!.E.!.U.k.m.y.jXpXa $ v U ",
"U H X @ e =.8 0 k c.q.H.k.G.k.G.k.U.n.:.k :.b.hXmXaXb.J.!.!.W.!.W.!._._._._.U.1.7.Y.hXvXM.>.v.U.!._._._._._.!.W.!.J.d.y.@ # c U ",
"U H X ; q w s x.U.k.L.k.L.k.L.k.T.!.!.T.m.4.4.z { 5.pXmX'.!.`.`._._._._._._.!.W.hXMX5Xz :.b.!._._._._._._._._.!.Q.P.-.% + X c U ",
"U H @ g.V.7 y :.G.U.!.Q.!.Q.!.Q.!._._._.!.W.T.U.v.>.z [ 6.J.zXmX^.^.`.`._._.`.'.zXB.3.v.T.!._._._._._._._._.!.U.6.y % > X & c U ",
"U H X y m.Y.P.z x 4.m.Y.E.Q.`._._._._._._._._._.!.E.R.r.9.3.z z 0.Y.xXvX'.lXvXN.x 3.v.!._._._._._._._._._.!.P.5.% @ 1 > & & c U ",
"U H & # 7.W.j.x.m.g q t 1.u.fXR._.'.'._._._._._._._._.!.Q.W.R.w.0.3.3.B.xXxXJ.3.j.W.!._._._._._._._._.`.W.N.a + 1 1 , X & & c U ",
"U H & & % i.7.j k g 6.k r 2 0 l C.nXzXW.`.'.`._._._._._._._.!.!.!.W.W.Y.5.5.k.W.!._._._._._._._._.'.'.zXu.8 # 1 6 1 > & & & c U ",
"U H & & X + c.e.b.I.Q.W.r.1.r e 0 0 a 6.S.nXjX`.kX`._._._._._._._._._.!.!.!.!._._._._._._._._._.'.MXnXs.< @ 1 6 1 > X & & & c U ",
"U H & & & X y.k &.4.T.(.Q.9.=.=.2.,.8 $ + t 7.pXnXaXQ.'.kX`._._._._._._._._._._._._._._._.W.T.P.sXnX] # 1 6 6 1 > X o & & & c U ",
"U H & & & & # 1 e 0.E._.!.r.j w =.,.=.6 e 5 2 , s *.i.sXxX'.kXkX`._._._.!.I.T._._._.(.W.G.N.n.>.5 @ % 5 6 1 , , X o , o & & c U ",
"U K = X . . . # s b.!._._.Q.w.e s 5.e.3.,.d =.f r , @ 9 j i.5XzX).lXlX^.F.1.k.G.m.T.U.w.u.fXjX6.2 8 &.w 6 1 # + X o , , o & c U ",
"U R } = . . . & # s b.!._._.T.-.1.L.!.E.k.e.-.f &.r 6 *.9 @ 1 p a.5XdXm.:.i.hXZ.a.0.i.f.dXcXp.% 9 &.w 6 6 6 1 X & & o , , @ N U ",
"U |.OXZ & & & & & , 1.T._._.Q.j.f :.G._._._.T.w.6.-.s ,.r 6 6 7 8 j f a q z.5XxXmXZ.6XdXA.u o o *.r 1 > 1 1 > @ X & . o 6 s ' U ",
"U |.OXQ = & & & & @ s v.Q._._.Q.j.f >.x.L._.P.i.i.:.f f 6.7.a s &.<.f 7 O 8 6 [ 3X4X5X%.# + o 8 <.r > + 1 1 o , # X & X , =.] U ",
"U {.OXOXF & & & & & @ s v.Q._.Q.j.f >.7.4.d.C.4X4X4XM.:.6.v.d.7.-.d d a 0 v.i.{ 7 2 2 o # + 9 >.&., + 1 1 + o 6 a # X & X , ' U ",
"U R o.oX} Z = & & & X # 1.b.E.j.f :.F.e.y.Z.B.3X&X&Xs.Z.B.-.w.W.G.x.d.h 3 ] y.b.j.f 3 # # 7 <.&.w t 6 1 + X X + s s # & . o N U ",
"U R Q M Q $X` & & & & X r 8.P.-.1.b.a.fX5XB.7.A.uXuXa.s.zXC.-.w.Q.!.j.f >.z.s.z L.-.3 + 9 >.j 5 s s 6 1 o & & X + h 7.# & & c U ",
"U R W M Z $X#.= & & & X @ a w.x.3.P.3.g.` 4 g.vXZ.S.zXp.[ cXC.-.w.U.-.:.L.!.N.u L.j @ + a j < j s 6 1 # X & & & X 2 5.i.# & c U ",
"U R X.Z * Q OXB & Z * & X @ g P.1.3.f.fX3X+ { Y.x y fXA.% [ xXnXzXd.r 0.!._.N.x L.j X # 6 6 1 &.r 6 # X & & & & & X 2 -.d # c U ",
"U {.oXZ M ! >X` & +.N & & X % d.dX;.k f.V.sXi.A.g.6 5XhXu o [ aXmXd.x.k j.!.Q.c.l $ @ 1 6 s r &.r 1 o & X & * Z & & X + -.i.B U ",
"U |.OXZ * D $X_ & #.#.m & & o p A.sX;.s 3.y.C.pXu.d.B.] ; 3 -.3.[ g q.n.k r.!.L.f # # 6 s 2.s w 6 @ X & * A N #.Q & . X 2 k ' U ",
"U |.OXZ & Z >X` & } $X} * & X @ p n.I.I.F.>.3.pXaXs.' 4 i.sXxXC.j 4.I.!.n.h 0.r.i.@ r ,.<.2.s 6 # X & & Q OX+.9X#XQ & & X + G U ",
"U R O.W M Z $X_ & W 2XF * & & X @ a w.E.T.v.f l 5.6XnXa.h z [ k 4.I.!.T.0.*.r j 8 @ s 2.f e 6 1 o & & * #.$XD $X$X} * & & X v U ",
"U |.oXZ * A >X` & $.;XB A * X X X @ t z 3.1.e h -.l [ a &.,.4.0.I.!.T.4.s s q.m.a # s f 6 1 6 # & & & } $X0XO.o.$X$X%.A * & c U ",
"U |...* V ! #XF & } #XB A * * & & o ] aXG.4.1.~.V.f ,.x g ;.F.T.!.T.4.d 4.w.Q.N., 4 d 6 + > 1 @ & & & -X;X$XF o.$X:X1Xm W Q b U ",
"U |.oXV M ! OXS & #.$Xm & * Q = & X $ z E.x.u.^.u.&.d 5XhXz <.8.m.0.s 4.E.!.!.c.@ 1 6 > > 1 @ X & * = } OXoX$X$X;X:X%.- _ #X^ U ",
"U R X.M * Z OXS & #.#Xm * - #.W & & X : e.x.V.sXf :.f c.MXa.=.s t.f.t.4.T.!.U.g o > + 1 1 @ X & *  .W M Q $XrX1X2XqX;Xo.$X2X XU ",
"U |...* Z M  .B & Q W M O.S %X#.m & & & 2 4.~.A.f F.6.&.sXjX3.f.fXnXxX5.4.T.J., X + 1 6 + X & *  .7X_ A S %XrXgXqX1XtX%XB %X<XU ",
"U |.#XQ Z V Q M & } Z O.1XoX$X7XO.n & & & u w.f :.L.F.s &.xXB.sXA.a.Y./.3.q.n.> # 1 6 1 @ & & Q wX1Xo.Z %XoX;XqX2X7XgXqX} ..<XU ",
"].|.:X;X..$.#.B &  .} %X#XOXo.#X$X#.n & & o , -.G._._.6.6 5XB.k 5XfXN.vXN.q.j o 6 1 , @ & & = %.tX0X$X$XrX>X1X2XqXqXtXyX*XOX<XU ",
"U {.;X9X0X0X` & & & & #.3X-XO.W #X&XA n & & @ 5.^.kXkXn.r f b.j.5.5.R.n.5.S.< + 6 > & & & = Z *XyXtXwXqXqX2X0XwXOX} %X3X&XW E U ",
"U E A A A A n & & & & V * & V * V & * V & & & 2 M.bXMX/.j r &.d.c.c.x.3./.cXO 1 6 > & & & M n M %.$.Q  ...%.|  .Z * M & = M c U ",
"U H . . & & & & & & & & & & & & m & & & & & & & 2 a.pX^.6.e.>.d s f 7./.bXZ.$ 6 1 @ & & & & & & & & & m & & & & & & & & & & c U ",
"U H & . & & & m V V * & M V V Z ! _ M & & & & & & + &.7.4.7.8.k.b.F.`.MXvXl o 1 @ & & = n & m D S V V W A _ _ _ & & & . & & c U ",
"U H & & m D  .#.OXOX . .#.OXOXOXOX$Xo.Z M . . & & o e w 8 < a r.b.b.J.MXcX2 > , & & = Q }  .$.$X:X>X#XOX:X;X;X1XD F & . . . c U ",
"].H & B #.oXoX#X;X7XwX;XOX$X$XoXOX$X$XOX#.| M & & & o , t p f s 8 s 4.~.M.$ , @ & & = } :X1X;XOX$X2X#X$XtXqXwX$XD #.$.. m $.$.U ",
"U E M _ #XQ O.$XOX$X1X;Xo.$X$X$X>XoXOX:X-X .O.M & & & o e <.2.=.g f j 8 e o o & & n A F %.wX1X| M #.D o.rXwXrXO.n o.&X= +.7XXXU ",
"].R Z S O.M %.1Xo.Z =X0X$X$X;X$XOXM F ;X%.B $X$.& & & & o e <.8.8.2.&., $ X & & = } #X| S 2X2XO. .2X+.X.qX:XOXZ Q X.O.+.1X+.b ].",
"U R Z V oXO._ 1XOXQ #X#X$X$XoX#XO.#.#.#XQ S 2X:XM . & & & o 8 r ,.d =.6 X . . & m oX$.S O.;X;XoXF iX .X.qX:XOXW o.0X1Xo.oX! ( ].",
"U R Z V O.D Z 2X#XV #.o.#X$Xo.;X2XO. .rX&XB ;X&XZ M & & & & o f s &.r 1 X & & & m oX%X=X$X7X2X_ A 0X_ } qXqX#.V X.*XwXo.OXQ b ].",
"].R Z V oXF A 9X#Xm #.S X.#Xo.$X#.m B >X$XA D O.@.W m & & & X 9 &.r 1 o X & = Z _ 7X1X2X;XwX;XM Q wXwX;X:X-XV = X.O.OX@Xo.! ( U ",
"].R Z Z oX_ A 9X#Xm W W Z %X$X#XX.W W o.#X-XD | 1X$XV & & & & o 5 6 , X & = A = ` qX;X0XtX7XOXW ! ;XtXtX1XwX .S >X} F >X-XZ ^ U ",
"].K V W o.S A 7X#XM Q #.X.$X;X$XO.O.OXW F *X;X#.;X$X%XF & & & X o , o X & m O.Z ` qX;X7XwX#XOXo.M 2X#X;XrXyX;X=XoXX.#.wX$X! ^ U ",
"].T C C *X+XC -X+X~ ~ Z ~ #XwX8XX./ o.+Xo.XX+XXXXX/ >X+XN . . . . * . . n O.-Xn ` eX#X*X;X@X@XD Q 2XD / 0XrXwX#X/ / +XXX#XXX^ U ",
"].U U I ].].U ].].Y Y U Y ].}.}.Y Y Y ].].Y Y Y Y Y [.].U L L L L L L L I Y [.L Y [.].].].].].U U [.T Y }.}.}.].Y Y ].Y ].].U U ",
"].}.[.J J T |.T J I I I I I I I I I I I I I I L K ^ ) ^ K ^ ) K J J E ) ) E J K E K E J J L L L L L L L L L L J L |.R J J L ].U "
};
